<?xml version="1.0" encoding="UTF-8"?> <svg xmlns="http://www.w3.org/2000/svg" width="161" height="121" viewBox="0 0 161 121"><g fill="none" fill-rule="nonzero"><path fill="#F6F8FE" d="M80.218 114.01c-24.343 11.548-56.393-3.651-71.585-33.948C-6.559 49.765.86 15.843 25.203 4.295c24.342-11.548 56.392 3.65 71.584 33.947 15.192 30.297 7.774 64.22-16.57 75.768z"></path><path fill="#F6F8FE" d="M42.985 95.094c-11.016-24.066 5.719-54.69 37.378-68.4 31.66-13.71 66.256-5.315 77.272 18.75 11.016 24.067-5.72 54.69-37.379 68.4-31.66 13.711-66.255 5.317-77.271-18.75z"></path><path fill="#DD7F2D" d="M69.833 81.782h1.856v1.784c0 1.208 1.019 2.187 2.276 2.187 1.258 0 2.277-.98 2.277-2.187v-1.784h1.855c1.258 0 2.277-.979 2.277-2.187 0-1.208-1.02-2.188-2.277-2.188h-1.855v-1.783c0-1.208-1.02-2.188-2.277-2.188-1.257 0-2.276.98-2.276 2.188v1.783h-1.856c-1.257 0-2.276.98-2.276 2.188 0 1.208 1.019 2.187 2.276 2.187z"></path><path stroke="#979797" stroke-dasharray="4" d="M71 94c25.405 0 46-20.147 46-45S96.405 4 71 4 25 24.147 25 49s20.595 45 46 45z"></path><path fill="#F6F8FE" d="M56.594 27.645v72.83h60.662v-72.83h-13.134l-2.16-6.381h-9.744l-5.293-5.09-6.442 5.09H71.97v6.38z"></path><path fill="#6D737C" d="M94.648 56.556c0-1.208 1.02-2.187 2.277-2.187h3.242c1.257 0 2.276.98 2.276 2.187 0 1.208-1.02 2.188-2.276 2.188h-3.242c-1.257 0-2.277-.98-2.277-2.188zm2.277 11.357h3.242c1.257 0 2.276-.98 2.276-2.188 0-1.208-1.02-2.187-2.276-2.187h-3.242c-1.257 0-2.277.98-2.277 2.187 0 1.209 1.02 2.188 2.277 2.188zM75.833 49.478h13.415c1.257 0 2.277-.98 2.277-2.187 0-1.209-1.02-2.188-2.277-2.188H75.833c-1.257 0-2.276.98-2.276 2.188 0 1.208 1.019 2.187 2.276 2.187zm21.092 0h3.242c1.257 0 2.276-.98 2.276-2.187 0-1.209-1.02-2.188-2.276-2.188h-3.242c-1.257 0-2.277.98-2.277 2.188 0 1.208 1.02 2.187 2.277 2.187zM121 27.766v74.046c0 1.209-1.02 2.188-2.276 2.188H57.276c-1.257 0-2.276-.98-2.276-2.188V27.766c0-1.209 1.02-2.188 2.276-2.188h11.685v-3.102c0-1.208 1.02-2.187 2.277-2.187H79.9C80.876 17.23 83.842 15 87.34 15c3.499 0 6.465 2.23 7.441 5.289h8.663c1.257 0 2.276.98 2.276 2.187v3.102h13.004c1.257 0 2.276.98 2.276 2.188zm-47.486 3.101h27.653v-6.203h-8.323c-1.257 0-2.276-.98-2.276-2.188 0-1.71-1.448-3.1-3.228-3.1-1.78 0-3.227 1.39-3.227 3.1 0 1.209-1.019 2.188-2.276 2.188h-8.323v6.203zm42.933-.914H105.72v3.101c0 1.209-1.02 2.188-2.277 2.188H71.238c-1.257 0-2.277-.98-2.277-2.188v-3.1h-9.408v69.67h56.894v-69.67zm-22.322 44.98h13.333v-33.9c0-1.209 1.019-2.188 2.276-2.188s2.276.98 2.276 2.187v36.072c.001.098-.005.196-.018.293v.005l-.001.002v.004l-.001.006v.001l-.001.005c-.011.075-.026.15-.045.223v.002l-.001.004v.002l-.002.004-.001.005a2.165 2.165 0 0 1-.572.982c-.001.003-.003.004-.005.006l-.01.01a52.868 52.868 0 0 0-.005.005l-.005.004-15.609 15-.005.006h-.001a.063.063 0 0 0-.004.005l-.004.003-.001.001-.005.005c-.287.269-.636.454-1.008.549l-.005.001-.005.001c-.074.019-.15.034-.227.045l-.006.001h-.005a.06.06 0 0 1-.006.002h-.006a2.4 2.4 0 0 1-.322.023H66.266c-1.258 0-2.277-.98-2.277-2.188V41.032c0-1.208 1.02-2.187 2.277-2.187 1.257 0 2.276.98 2.276 2.187v48.902h23.307V77.12c0-1.208 1.019-2.188 2.276-2.188zM96.4 86.84l7.838-7.531H96.4v7.531zM75.833 58.744h13.415c1.257 0 2.277-.98 2.277-2.188 0-1.208-1.02-2.187-2.277-2.187H75.833c-1.257 0-2.276.98-2.276 2.187 0 1.208 1.019 2.188 2.276 2.188zm0 9.169h13.415c1.257 0 2.277-.98 2.277-2.188 0-1.208-1.02-2.187-2.277-2.187H75.833c-1.257 0-2.276.98-2.276 2.187 0 1.209 1.019 2.188 2.276 2.188z"></path><path fill="#DD7F2D" d="M75.833 81.782h1.856v1.784c0 1.208 1.019 2.187 2.276 2.187 1.258 0 2.277-.98 2.277-2.187v-1.784h1.855c1.258 0 2.277-.979 2.277-2.187 0-1.208-1.02-2.188-2.277-2.188h-1.855v-1.783c0-1.208-1.02-2.188-2.277-2.188-1.257 0-2.276.98-2.276 2.188v1.783h-1.856c-1.257 0-2.276.98-2.276 2.188 0 1.208 1.019 2.187 2.276 2.187z"></path><circle cx="131" cy="41" r="3" fill="#7ABEDF"></circle><circle cx="39" cy="55" r="3" fill="#DD7F2D"></circle><circle cx="127.5" cy="65.5" r="2.5" fill="#7ABEDF"></circle></g></svg> 