<?xml version="1.0" encoding="UTF-8"?> <svg xmlns="http://www.w3.org/2000/svg" width="152" height="116" viewBox="0 0 152 116"><g fill="none" fill-rule="evenodd" transform="translate(-11 -18)"><g fill="#F6F8FE" fill-rule="nonzero"><ellipse cx="70.731" cy="85.477" rx="47.267" ry="60.411" transform="scale(1 -1) rotate(76 180.138 0)"></ellipse><ellipse cx="111.303" cy="76.146" rx="47.233" ry="60.455" transform="scale(-1 1) rotate(-31 0 477.491)"></ellipse></g><path fill="#6D737C" fill-rule="nonzero" d="M123.717 41H49.283c-.71 0-1.283.575-1.283 1.283v46.2c0 .709.574 1.284 1.283 1.284h12.834v2.325c-2.298 1.333-3.85 3.815-3.85 6.658 0 2.496 1.2 4.712 3.046 6.12-4.056 1.794-6.896 5.85-6.896 10.563v1.284c0 .708.573 1.283 1.283 1.283h61.6c.71 0 1.283-.575 1.283-1.283v-1.284c0-4.712-2.84-8.769-6.896-10.563a7.686 7.686 0 0 0 3.046-6.12c0-2.843-1.553-5.325-3.85-6.658v-2.325h12.834c.71 0 1.283-.575 1.283-1.284v-46.2c0-.708-.574-1.283-1.283-1.283zM60.833 98.75a5.138 5.138 0 0 1 5.134-5.133A5.138 5.138 0 0 1 71.1 98.75a5.138 5.138 0 0 1-5.133 5.133 5.138 5.138 0 0 1-5.134-5.133zm-3.85 16.683c0-4.953 4.031-8.983 8.984-8.983 4.952 0 8.983 4.03 8.983 8.983H56.983zM70.62 104.87a7.686 7.686 0 0 0 3.047-6.12 7.66 7.66 0 0 0-1.977-5.133h9.088A7.655 7.655 0 0 0 78.8 98.75c0 2.496 1.2 4.712 3.047 6.12a11.608 11.608 0 0 0-5.614 5.295 11.608 11.608 0 0 0-5.613-5.295zm10.747-6.12a5.138 5.138 0 0 1 5.133-5.133 5.138 5.138 0 0 1 5.133 5.133 5.138 5.138 0 0 1-5.133 5.133 5.138 5.138 0 0 1-5.133-5.133zm-3.85 16.683c0-4.953 4.03-8.983 8.983-8.983 4.952 0 8.983 4.03 8.983 8.983H77.517zm13.636-10.563a7.686 7.686 0 0 0 3.047-6.12 7.66 7.66 0 0 0-1.976-5.133h9.087a7.655 7.655 0 0 0-1.978 5.133c0 2.496 1.2 4.712 3.047 6.12a11.608 11.608 0 0 0-5.613 5.295 11.608 11.608 0 0 0-5.614-5.295zm24.864 10.563H98.05c0-4.953 4.031-8.983 8.983-8.983 4.953 0 8.984 4.03 8.984 8.983zm-3.85-16.683a5.138 5.138 0 0 1-5.134 5.133 5.138 5.138 0 0 1-5.133-5.133 5.138 5.138 0 0 1 5.133-5.133 5.138 5.138 0 0 1 5.134 5.133zM109.6 80.783h-3.85v2.567h2.567v7.7H64.683v-8.983c0-.709-.573-1.284-1.283-1.284h-3.85v-2.566h53.9v2.566h-3.85zm-15.535-19.25c1.452 0 2.875.5 4.008 1.407l4.307 3.446a1.28 1.28 0 0 0 1.847-.257l5.653-7.914 3.07 2.302-6.297 8.66a3.813 3.813 0 0 1-2.638 1.557 3.809 3.809 0 0 1-2.939-.863l-3.488-2.907a1.288 1.288 0 0 0-1.365-.177c-.45.212-.74.665-.74 1.163v7.7h-7.7V64.1h-2.566v11.55h-7.7v-7.7c0-.498-.29-.951-.74-1.163a1.287 1.287 0 0 0-1.365.177l-3.488 2.907a3.804 3.804 0 0 1-2.939.863 3.815 3.815 0 0 1-2.638-1.557l-6.298-8.66 3.071-2.302 5.653 7.914a1.281 1.281 0 0 0 1.847.257l4.307-3.446a6.431 6.431 0 0 1 4.006-1.407h15.132zm-12.698-7.7A5.138 5.138 0 0 1 86.5 48.7a5.138 5.138 0 0 1 5.133 5.133 5.138 5.138 0 0 1-5.133 5.134 5.138 5.138 0 0 1-5.133-5.134zM122.433 87.2h-11.55v-3.85h3.85c.71 0 1.284-.575 1.284-1.283v-5.134c0-.708-.574-1.283-1.284-1.283H98.05v-4.96l1.382 1.152a6.445 6.445 0 0 0 4.899 1.439 6.435 6.435 0 0 0 4.398-2.594l7.041-9.681a1.283 1.283 0 0 0-.268-1.781l-5.133-3.85a1.28 1.28 0 0 0-1.813.281l-5.63 7.88-3.247-2.6a9.014 9.014 0 0 0-5.612-1.97h-1.843a7.66 7.66 0 0 0 1.976-5.133c0-4.246-3.453-7.7-7.7-7.7s-7.7 3.454-7.7 7.7a7.66 7.66 0 0 0 1.976 5.134h-1.843c-2.032 0-4.025.7-5.612 1.968l-3.248 2.6-5.63-7.88a1.282 1.282 0 0 0-1.813-.282l-5.133 3.85a1.283 1.283 0 0 0-.269 1.782l7.042 9.681a6.444 6.444 0 0 0 4.398 2.594 6.452 6.452 0 0 0 4.899-1.439l1.383-1.151v4.96H58.267c-.71 0-1.284.575-1.284 1.283v5.134c0 .708.574 1.283 1.284 1.283h3.85v3.85h-11.55V43.567h71.866V87.2z"></path><path fill="#DD7F2D" d="M117 46h3v3h-3zM112 46h3v3h-3zM107 46h3v3h-3zM100 81h3v3h-3z"></path><circle cx="37" cy="83" r="4" fill="#7ABEDF" fill-rule="nonzero"></circle><circle cx="136" cy="41" r="4" fill="#DD7F2D" fill-rule="nonzero"></circle></g></svg> 