<?xml version="1.0" encoding="UTF-8"?> <svg xmlns="http://www.w3.org/2000/svg" width="166" height="115" viewBox="0 0 166 115"><g fill="none" fill-rule="nonzero" transform="translate(-4 -18)"><ellipse cx="65.123" cy="84.842" fill="#F6F8FE" rx="47.267" ry="60.411" transform="rotate(-84 65.123 84.842)"></ellipse><ellipse cx="117.147" cy="76.761" fill="#F6F8FE" rx="47.233" ry="60.455" transform="rotate(38 117.147 76.761)"></ellipse><path stroke="#979797" stroke-dasharray="4" d="M86.5 108c24.577 0 44.5-19.923 44.5-44.5S111.077 19 86.5 19 42 38.923 42 63.5 61.923 108 86.5 108z"></path><circle cx="143.5" cy="38.5" r="3.5" fill="#7ABEDF"></circle><circle cx="32.5" cy="76.5" r="3.5" fill="#DD7F2D"></circle><circle cx="130" cy="28" r="2" fill="#7ABEDF"></circle><path fill="#F6F8FE" d="M59 65.426v25.112l12.54 4.608 2.437-1.212 4.853 2.947 2.756 3.621 13.15 11.97h2.485l4.725 1.528 14.18-15.536L140 85.132V68.177l-6.51 3.108-8.28-3.108v-2.751l3.74-3.983v-7.938l-5.357-5.24h-4.295l.633-5.19-4.697-4.738-4.605 1.504-6.086-2.581-1.65-4.26h-7.45l-.706 4.26-5.868 2.581-5.109-1.504-4.93 4.738 1.147 5.19-6 .966-3.736 4.926.4 7.866 3.336 4.646-1.069 1.508-3.586 1.414z"></path><path fill="#6D737C" d="M69.778 67.835l2.948-.737v-.643a9.397 9.397 0 0 1-4.016-7.68v-2.678a9.285 9.285 0 0 1 2.847-6.724 9.301 9.301 0 0 1 6.813-2.642c.054.001.107.011.162.014l-1.438-3.426 7.083-7.083 4.18 2.72a22.618 22.618 0 0 1 5.01-2.079L94.4 32h10.203l1.032 4.876a22.644 22.644 0 0 1 5.011 2.078l4.179-2.72 7.089 7.088-1.462 3.423c.251-.013.502-.022.756-.015 5.008.151 9.083 4.503 9.083 9.704v2.34a9.401 9.401 0 0 1-4.017 7.683v.641l5.64 1.411c.566.142 1.09.378 1.595.657l4.484-2.36H141v19.57l-24.117 12.057a4.117 4.117 0 0 1-4.001 4.509 4.072 4.072 0 0 1-4.016 4.02 4.072 4.072 0 0 1-4.016 4.017A4.076 4.076 0 0 1 100.78 115h-.248c-.993 0-1.95-.363-2.693-1.017l-1.186-1.047c-.69.464-1.51.725-2.347.725-2.253 0-4.083-1.796-4.163-4.03a4.168 4.168 0 0 1-4.016-4.017 4.168 4.168 0 0 1-4.016-4.016 4.168 4.168 0 0 1-4.02-4.038l-4.037-2.424-.32 1.122H71.17L58 91.868V64.13h4.379l6.649 3.878v.033l3.399 1.894-.068.017 7.06 4.119-.05 2.474-.11.38 4.176-.929v-.992c0-1.8.727-3.447 1.918-4.665l-4.594-1.148-.005-4.236.67-.387a6.72 6.72 0 0 0 3.35-5.793v-2.34c0-3.767-2.91-6.92-6.486-7.027-1.814-.07-3.557.615-4.867 1.885a6.637 6.637 0 0 0-2.034 4.805v2.677a6.712 6.712 0 0 0 3.348 5.79l.668.387v4.24l-2.322.58-3.303-1.936zm57.835-11.4c0-3.768-2.91-6.92-6.486-7.028-1.818-.07-3.557.615-4.868 1.885a6.637 6.637 0 0 0-2.033 4.805v2.677a6.712 6.712 0 0 0 3.348 5.79l.668.387v4.24l-4.595 1.147a6.66 6.66 0 0 1 1.918 4.665v3.607l14.721-7.749-6.688-1.67-.005-4.237.67-.387a6.72 6.72 0 0 0 3.35-5.793v-2.34zm-26.094 21.122c.67.026 1.338.101 1.987.285l8.23 2.352h.82l.331-.174v-5.017a4.013 4.013 0 0 0-3.041-3.897l-7.667-1.916-.006-4.236.67-.387a6.72 6.72 0 0 0 3.35-5.793v-2.34c0-3.767-2.91-6.92-6.486-7.027a6.619 6.619 0 0 0-4.867 1.885 6.637 6.637 0 0 0-2.034 4.805v2.677a6.712 6.712 0 0 0 3.349 5.79l.668.387v4.24l-7.669 1.915a4.013 4.013 0 0 0-3.041 3.897v.397l.767-.17a16.532 16.532 0 0 1 8.578.39l6.06 1.937zm-15.106-25.52a9.867 9.867 0 0 1 1.039 4.397v2.34a9.401 9.401 0 0 1-4.018 7.683v.641l5.356 1.34 5.355-1.34v-.643a9.397 9.397 0 0 1-4.016-7.68v-2.678a9.294 9.294 0 0 1 2.846-6.726 9.3 9.3 0 0 1 6.813-2.641c5.008.151 9.083 4.503 9.083 9.704v2.34a9.401 9.401 0 0 1-4.017 7.683v.641l5.356 1.34 5.355-1.34v-.643a9.397 9.397 0 0 1-4.017-7.68v-2.678c0-1.476.347-2.89.984-4.169-2.533-4.805-7.571-7.88-13.032-7.88-5.513 0-10.573 3.117-13.087 7.988zm-6.157-8.097l1.502 3.581a9.443 9.443 0 0 1 2.953 2.094c3.147-5.065 8.738-8.244 14.789-8.244 6.008 0 11.584 3.15 14.738 8.164.053-.055.1-.113.155-.166a9.357 9.357 0 0 1 2.826-1.88l1.518-3.554-4.271-4.273-3.765 2.45-.72-.442a19.996 19.996 0 0 0-5.797-2.405l-.823-.197-.93-4.39H96.57l-.932 4.391-.823.198a19.977 19.977 0 0 0-5.797 2.404l-.72.442-3.765-2.45-4.277 4.277zM60.677 66.806v23.132l5.746 1.916 4.858-19.432-9.628-5.616h-.976zm10.927 26.775h.113l5.025-17.591v-.383l-3.053-1.78-4.72 18.876 2.635.878zm9.154 3.854a1.503 1.503 0 0 0 2.562 1.061l2.354-2.353a1.503 1.503 0 0 0-2.123-2.123l-2.354 2.353c-.28.28-.439.667-.439 1.062zm4.016 4.016a1.503 1.503 0 0 0 2.563 1.061l2.353-2.353a1.503 1.503 0 0 0-2.123-2.123l-2.354 2.353c-.28.28-.439.667-.439 1.062zm4.016 4.016a1.503 1.503 0 0 0 2.563 1.061l2.353-2.353a1.503 1.503 0 0 0-2.123-2.123l-2.353 2.353c-.28.28-.44.667-.44 1.062zm5.517 5.517c.395 0 .782-.16 1.062-.44l2.353-2.353a1.503 1.503 0 0 0-2.123-2.123l-2.353 2.353a1.503 1.503 0 0 0 1.062 2.562zm6.474 1.339a1.398 1.398 0 0 0 .894-2.47l-1.217-1.013a4.162 4.162 0 0 1-.843 1.244l-1.005 1.006 1.001.883c.254.225.581.35.922.35h.248zm12.005-12.049a1.44 1.44 0 0 0 .963-2.511l-11.31-10.18a2.763 2.763 0 0 0-3.21-.309l-4.986 2.99a4.471 4.471 0 0 1-2.307.64 4.49 4.49 0 0 1-4.484-4.486v-.264c0-1.709.949-3.246 2.476-4.011l6.686-3.343-1.972-.63a13.791 13.791 0 0 0-7.183-.326l-9.037 2.01-3.605 12.617 4.112 2.467c.118-.158.235-.317.375-.458l2.354-2.353a4.207 4.207 0 0 1 2.954-1.224c2.253 0 4.084 1.797 4.162 4.031a4.168 4.168 0 0 1 4.016 4.017 4.168 4.168 0 0 1 4.016 4.016 4.164 4.164 0 0 1 3.595 2.34l2.988 2.49c.394.327.895.51 1.408.51.77 0 1.397-.627 1.397-1.397 0-.416-.184-.807-.502-1.07l-7.05-5.875 1.715-2.058 7.271 6.06c.25.208.568.323.893.323h.292a1.398 1.398 0 0 0 .896-2.469l-7.05-5.873 1.715-2.058 7.26 6.05c.257.215.585.334.921.334h.231zm25.537-15.553V69.658L113.218 82.87l-2.038-.051-8.412-2.403a5.818 5.818 0 0 0-4.173.387l-7.467 3.734a1.796 1.796 0 0 0-.999 1.616v.264a1.808 1.808 0 0 0 2.734 1.55l4.986-2.99a5.392 5.392 0 0 1 6.38.617l11.31 10.18c.08.072.157.146.23.224l22.554-11.278z"></path><path stroke="#979797" d="M83 76l2-.527V75l-2 .473zM112.424 81l2.207-1.36L115 79l-3 1.666zM129.488 72L133 70.43l-.315-.43L129 72z"></path></g></svg> 