<?xml version="1.0" encoding="UTF-8"?> <svg xmlns="http://www.w3.org/2000/svg" width="154" height="106" viewBox="0 0 154 106"><g fill="none" fill-rule="evenodd" transform="translate(-12 -18)"><g fill="#F6F8FE" fill-rule="nonzero"><ellipse cx="71.591" cy="74.864" rx="47.267" ry="60.411" transform="scale(1 -1) rotate(73 172.763 0)"></ellipse><ellipse cx="107.042" cy="68.954" rx="47.233" ry="60.455" transform="scale(-1 1) rotate(-64 0 240.256)"></ellipse></g><path fill="#F79857" fill-rule="nonzero" d="M87 52H70v17h17V52zm-2.429 14.571H72.43V54.43H84.57V66.57z"></path><path fill="#6D737C" d="M110.833 51H92.167C91.52 51 91 51.67 91 52.5s.522 1.5 1.167 1.5h18.666c.646 0 1.167-.67 1.167-1.5s-.522-1.5-1.167-1.5zM110.833 59H92.167C91.52 59 91 59.67 91 60.5s.522 1.5 1.167 1.5h18.666c.646 0 1.167-.67 1.167-1.5s-.522-1.5-1.167-1.5zM110.833 66H92.167C91.52 66 91 66.67 91 67.5s.522 1.5 1.167 1.5h18.666c.646 0 1.167-.67 1.167-1.5s-.522-1.5-1.167-1.5zM111.8 73H72.2c-.664 0-1.2.67-1.2 1.5s.536 1.5 1.2 1.5h39.6c.664 0 1.2-.67 1.2-1.5s-.536-1.5-1.2-1.5zM90.765 80h-18.53c-.683 0-1.235.67-1.235 1.5s.552 1.5 1.235 1.5h18.53c.683 0 1.235-.67 1.235-1.5s-.552-1.5-1.235-1.5zM90.765 87h-18.53c-.683 0-1.235.67-1.235 1.5s.552 1.5 1.235 1.5h18.53c.683 0 1.235-.67 1.235-1.5s-.552-1.5-1.235-1.5zM90.765 95h-18.53c-.683 0-1.235.67-1.235 1.5s.552 1.5 1.235 1.5h18.53c.683 0 1.235-.67 1.235-1.5s-.552-1.5-1.235-1.5z"></path><path fill="#F79857" fill-rule="nonzero" d="M96 97h17V80H96v17zm2.429-14.571h12.142V94.57H98.43V82.43z"></path><path fill="#6D737C" fill-rule="nonzero" d="M120 48.383c0-.02-.01-.036-.012-.056V33H62.897v35.5H51v28.4c0 3.916 3.201 7.1 7.138 7.1h54.724c3.93 0 7.126-3.18 7.126-7.088V48.44c.001-.02.012-.037.012-.057zm-2.391-13.016V47.2H65.276V35.367h52.333zM53.379 96.9V70.867h9.518V96.9c0 2.61-2.135 4.733-4.76 4.733-2.623 0-4.758-2.123-4.758-4.733zm59.483 4.733H63.455c.019-.021.032-.046.05-.067a7.057 7.057 0 0 0 .754-1.033c.192-.32.363-.653.503-1.004.019-.048.036-.097.053-.145a7 7 0 0 0 .325-1.123c.007-.036.01-.072.017-.107.074-.407.119-.826.119-1.254V49.567h52.333v47.345c0 2.603-2.13 4.721-4.747 4.721z"></path><path fill="#6D737C" fill-rule="nonzero" d="M106 38H77v7h29v-7zm-2.417 4.667H79.417v-2.334h24.166v2.334z"></path><circle cx="43" cy="61" r="3" fill="#F79857" fill-rule="nonzero"></circle><circle cx="133" cy="41" r="3" fill="#7ABEDF" fill-rule="nonzero"></circle><circle cx="124" cy="69" r="3" fill="#F79857" fill-rule="nonzero"></circle></g></svg> 