<?xml version="1.0" encoding="UTF-8"?> <svg xmlns="http://www.w3.org/2000/svg" width="161" height="120" viewBox="0 0 161 120"><g fill="none" fill-rule="evenodd"><path fill="#F6F8FE" fill-rule="nonzero" d="M79.47 113.58c-24.342 11.549-56.392-3.65-71.584-33.947C-7.306 49.336.112 15.414 24.456 3.866 48.797-7.682 80.847 7.516 96.04 37.813c15.192 30.297 7.774 64.22-16.57 75.768z"></path><path fill="#F6F8FE" fill-rule="nonzero" d="M42.388 93.984c-11.016-24.066 5.719-54.69 37.378-68.4 31.66-13.71 66.256-5.316 77.272 18.75 11.016 24.066-5.72 54.69-37.38 68.4-31.659 13.711-66.254 5.316-77.27-18.75z"></path><g fill="#6D737C"><path d="M64.56 48.28a1.144 1.144 0 0 0-1.67.185c-.506.66-1.177 1.022-1.89 1.022-.713 0-1.384-.363-1.89-1.022a1.145 1.145 0 0 0-1.67-.184 1.306 1.306 0 0 0-.175 1.767C58.217 51.288 59.578 52 61 52c1.422 0 2.783-.712 3.735-1.952a1.306 1.306 0 0 0-.175-1.767zM55.5 40c-.828 0-1.5.563-1.5 1.257v1.486c0 .694.672 1.257 1.5 1.257s1.5-.563 1.5-1.257v-1.486c0-.694-.672-1.257-1.5-1.257zM67.5 40c-.828 0-1.5.563-1.5 1.257v1.486c0 .694.672 1.257 1.5 1.257s1.5-.563 1.5-1.257v-1.486c0-.694-.672-1.257-1.5-1.257zM48.88 74.59l-2.71-5.9c-.283-.616-.971-.866-1.537-.558-.565.308-.795 1.057-.512 1.673l2.589 5.638v23.31c0 .689.513 1.247 1.145 1.247S49 99.442 49 98.753V75.148c0-.193-.041-.384-.12-.557zM78.367 68.132c-.566-.308-1.254-.058-1.536.557l-2.71 5.902c-.08.173-.121.364-.121.557v23.605c0 .689.513 1.247 1.145 1.247s1.145-.558 1.145-1.247v-23.31l2.589-5.638c.283-.616.053-1.365-.512-1.673zM104.56 55.28a1.144 1.144 0 0 0-1.67.185c-.506.66-1.177 1.022-1.89 1.022-.713 0-1.384-.363-1.89-1.022a1.145 1.145 0 0 0-1.67-.184 1.306 1.306 0 0 0-.175 1.767C98.217 58.288 99.578 59 101 59c1.422 0 2.783-.711 3.735-1.952a1.306 1.306 0 0 0-.175-1.767zM95.5 48c-.828 0-1.5.563-1.5 1.257v1.486c0 .694.672 1.257 1.5 1.257s1.5-.563 1.5-1.257v-1.486c0-.695-.672-1.257-1.5-1.257zM106.5 48c-.828 0-1.5.563-1.5 1.257v1.486c0 .694.672 1.257 1.5 1.257s1.5-.563 1.5-1.257v-1.486c0-.694-.672-1.257-1.5-1.257z"></path><path fill-rule="nonzero" d="M119.418 73.108l-10.162-4.012a1.681 1.681 0 0 1-1.076-1.569V64.49c.696-.387 1.36-.83 1.986-1.33 2.544-2.03 4.342-4.873 5.063-8.005.24-1.044.361-2.12.361-3.2 0-7.2-5.284-8.235-10.393-9.236-3.268-.64-6.647-1.303-9.343-3.431a1.265 1.265 0 0 0-1.901.41 14.484 14.484 0 0 1-1.896 2.706c-1.005 1.124-2.583 2.464-4.395 2.464-.61 0-1.188.13-1.711.36v-2.05c0-8.19 6.75-14.854 15.049-14.854 8.298 0 15.05 6.664 15.05 14.855v2.925c0 .683.56 1.237 1.252 1.237.691 0 1.252-.554 1.252-1.237v-2.925c0-6.48-3.623-12.14-8.975-15.112.054-.323.083-.65.083-.979 0-3.908-3.886-7.087-8.662-7.087-4.776 0-8.662 3.18-8.662 7.087 0 .329.029.656.083.98-5.352 2.97-8.975 8.63-8.975 15.11v5.852c0 1.879 1.268 3.47 3.003 3.986.053.722.161 1.438.322 2.139.72 3.132 2.519 5.976 5.063 8.006.625.499 1.29.942 1.986 1.33v3.037c0 .695-.423 1.31-1.076 1.569l-10.162 4.012C80.406 73.967 79 76.017 79 78.33v7.27c0 .327.132.642.367.874.235.231.553.361.885.361h.23v11.929c0 .682.56 1.236 1.252 1.236s1.253-.554 1.253-1.236v-11.93h3.423v11.93c0 .682.56 1.236 1.252 1.236s1.253-.554 1.253-1.236v-16.09c0-.684-.561-1.237-1.253-1.237-.691 0-1.252.553-1.252 1.236v1.69H81.504V78.33c0-1.296.789-2.445 2.008-2.927l7.903-3.12c1.049 1.755 4.026 6.103 9.025 8.57a1.265 1.265 0 0 0 1.12 0c4.998-2.467 7.976-6.815 9.025-8.57l7.903 3.12a3.138 3.138 0 0 1 2.007 2.927v6.033h-4.905v-1.69c0-.682-.56-1.236-1.252-1.236s-1.253.554-1.253 1.236v16.09c0 .684.561 1.237 1.253 1.237.691 0 1.252-.553 1.252-1.236V86.835h3.423v11.929c0 .683.561 1.236 1.253 1.236.691 0 1.252-.553 1.252-1.236V86.835h.23c.691 0 1.252-.553 1.252-1.236V78.33c0-2.313-1.406-4.363-3.582-5.222zM101 22.473c3.334 0 6.056 1.996 6.153 4.478a17.671 17.671 0 0 0-6.153-1.1c-2.164 0-4.237.39-6.153 1.1.097-2.482 2.819-4.478 6.153-4.478zM93.41 61.238a11.957 11.957 0 0 1-4.195-6.63c-.199-.865-.3-1.758-.3-2.653 0-.683-.56-1.236-1.252-1.236a1.703 1.703 0 0 1-1.711-1.69c0-.931.767-1.69 1.711-1.69 3.798 0 6.553-3.393 7.796-5.292 2.921 1.856 6.262 2.51 9.251 3.096 5.504 1.079 8.377 1.872 8.377 6.812 0 .896-.101 1.788-.3 2.652a11.955 11.955 0 0 1-4.195 6.63 12.047 12.047 0 0 1-7.59 2.647c-2.797 0-5.422-.915-7.592-2.646zM101 78.35c-3.778-2.06-6.209-5.393-7.226-7.003 1.552-.659 2.55-2.145 2.55-3.82v-1.936c1.498.5 3.078.764 4.676.764 1.598 0 3.178-.264 4.676-.764v1.935c0 1.676.998 3.162 2.55 3.82-1.017 1.611-3.448 4.944-7.226 7.004z"></path><path fill-rule="nonzero" d="M80.936 62.998l-8.138-2.408-1.357-2.007a1.255 1.255 0 0 0-1.272-.529v-1.836c3.324-2.428 5.574-6.211 5.893-10.517 1.737-.515 3.005-2.107 3.005-3.986a4.14 4.14 0 0 0-1.483-3.152v-8.55c0-2.344-1.203-4.537-3.176-5.85-.66-2.445-2.882-4.163-5.492-4.163H57.05c-6.416 0-11.635 5.148-11.635 11.476v7.087a4.14 4.14 0 0 0-1.484 3.152c0 1.879 1.27 3.47 3.006 3.986.32 4.306 2.568 8.089 5.893 10.517v1.836a1.26 1.26 0 0 0-1.273.529l-1.356 2.006-8.138 2.408c-2.43.72-4.064 2.885-4.064 5.388v30.379c0 .683.561 1.236 1.253 1.236.693 0 1.254-.553 1.254-1.236v-30.38c0-1.402.915-2.615 2.277-3.018l5.599-1.657c.01.256.103.51.273.72l5.035 6.207a2.74 2.74 0 0 0 2.134 1.017c.572 0 1.149-.178 1.644-.544l2.777-2.054v29.709c0 .682.562 1.236 1.254 1.236s1.253-.554 1.253-1.236v-29.71l2.777 2.055a2.757 2.757 0 0 0 1.645.544 2.74 2.74 0 0 0 2.134-1.017l5.034-6.207c.171-.21.263-.464.274-.72l5.599 1.657c1.362.403 2.277 1.616 2.277 3.019 0 .683.561 1.236 1.254 1.236.692 0 1.253-.553 1.253-1.236 0-2.503-1.633-4.668-4.064-5.387zM49.406 44.64c0-.683-.562-1.236-1.254-1.236-.945 0-1.713-.758-1.713-1.69 0-.6.322-1.142.86-1.451.028-.016.053-.035.08-.053.238-.12.502-.185.773-.185h1.75c1.3 0 2.429-.913 2.684-2.17l.912-4.496a.206.206 0 0 1 .098-.143.249.249 0 0 1 .202-.021c2.226.64 4.89.979 7.702.979 3.609 0 6.94-.554 9.381-1.559A1.23 1.23 0 0 0 71.555 31a1.26 1.26 0 0 0-1.64-.664c-2.11.869-5.178 1.367-8.415 1.367-2.541 0-5.027-.312-7-.88a2.8 2.8 0 0 0-2.203.281 2.694 2.694 0 0 0-1.258 1.772l-.912 4.496a.23.23 0 0 1-.225.182h-1.75c-.077 0-.153.004-.23.008v-6.085c0-4.965 4.095-9.004 9.129-9.004h11.865a3.159 3.159 0 0 1 3.14 2.657c.06.373.29.698.623.883 1.48.823 2.399 2.356 2.399 4v9.183c0 .44.237.847.623 1.069.538.309.86.852.86 1.451 0 .932-.769 1.69-1.713 1.69-.692 0-1.254.553-1.254 1.236 0 6.577-5.425 11.929-12.094 11.929-6.67 0-12.095-5.352-12.095-11.93zm6.56 24.49a.23.23 0 0 1-.318-.04l-4.462-5.5 1.684-2.492 6.61 5.432-3.515 2.6zm5.534-4.158l-6.162-5.064v-2.216a14.682 14.682 0 0 0 6.162 1.349c2.201 0 4.289-.485 6.162-1.349v2.216L61.5 64.973zm5.852 4.118a.23.23 0 0 1-.317.04l-3.515-2.6 6.61-5.432 1.684 2.492-4.462 5.5z"></path><path d="M57.505 78h-.018A1.49 1.49 0 0 0 56 79.5c0 .828.678 1.5 1.504 1.5S59 80.328 59 79.5s-.67-1.5-1.495-1.5zM57.505 90h-.018A1.49 1.49 0 0 0 56 91.5c0 .828.678 1.5 1.504 1.5S59 92.328 59 91.5s-.67-1.5-1.495-1.5zM57.505 84h-.018A1.49 1.49 0 0 0 56 85.5c0 .828.678 1.5 1.504 1.5S59 86.328 59 85.5s-.67-1.5-1.495-1.5z"></path></g><circle cx="24.5" cy="55.5" r="3.5" fill="#DD7F2D" fill-rule="nonzero"></circle><circle cx="135" cy="33" r="5" fill="#7ABEDF" fill-rule="nonzero"></circle><circle cx="123.5" cy="63.5" r="3.5" fill="#E1E3EC" fill-rule="nonzero"></circle></g></svg> 