<?xml version="1.0" encoding="UTF-8"?> <svg xmlns="http://www.w3.org/2000/svg" width="135" height="128" viewBox="0 0 135 128"><g fill="none" fill-rule="nonzero" transform="translate(-12 -10)"><ellipse cx="60.477" cy="70.051" fill="#F6F8FE" rx="47.267" ry="60.411" transform="rotate(14 60.477 70.051)"></ellipse><ellipse cx="87.132" cy="89.066" fill="#F6F8FE" rx="47.233" ry="60.455" transform="rotate(106 87.132 89.066)"></ellipse><path fill="#F79857" d="M58.578 55.594c-2.732 1.031-4.69 3.652-4.69 6.74 0 1.188.318 2.295.829 3.286C52.55 66.453 51 68.542 51 71c0 2.459 1.55 4.547 3.717 5.38-.511.992-.828 2.098-.828 3.287 0 3.088 1.957 5.708 4.689 6.74a5.698 5.698 0 0 0-.356 1.926A5.783 5.783 0 0 0 64 94.111a5.75 5.75 0 0 0 2.037-.389C66.973 95.654 68.936 97 71.222 97A5.783 5.783 0 0 0 77 91.222V50.778A5.784 5.784 0 0 0 71.222 45c-2.286 0-4.25 1.346-5.185 3.278a5.75 5.75 0 0 0-2.037-.39 5.784 5.784 0 0 0-5.778 5.779c0 .679.14 1.321.356 1.927zM64 50.778a2.892 2.892 0 0 1 2.889 2.889h2.889c0-1.388-.513-2.648-1.332-3.645a2.886 2.886 0 0 1 2.776-2.133 2.892 2.892 0 0 1 2.89 2.889v40.444a2.892 2.892 0 0 1-2.89 2.89 2.885 2.885 0 0 1-2.776-2.134c.819-.997 1.332-2.256 1.332-3.645h-2.89A2.892 2.892 0 0 1 64 91.223a2.892 2.892 0 0 1-2.889-2.89A2.892 2.892 0 0 1 64 85.444v-2.888c-1.407 0-2.68.526-3.683 1.364a4.334 4.334 0 0 1-3.54-4.253 4.339 4.339 0 0 1 4.334-4.334 4.339 4.339 0 0 1 4.333 4.334h2.89c0-3.982-3.24-7.223-7.223-7.223-1.632 0-3.123.565-4.333 1.483v-.038A2.892 2.892 0 0 1 53.888 71a2.892 2.892 0 0 1 2.89-2.889v-.037c1.21.917 2.701 1.482 4.333 1.482a7.23 7.23 0 0 0 7.222-7.223h-2.889a4.338 4.338 0 0 1-4.333 4.334 4.339 4.339 0 0 1-4.333-4.334 4.334 4.334 0 0 1 3.539-4.252c1.002.838 2.276 1.363 3.683 1.363v-2.888a2.892 2.892 0 0 1-2.889-2.89A2.892 2.892 0 0 1 64 50.779zM93 47.889c-.72 0-1.4.149-2.036.389-.937-1.932-2.9-3.278-5.186-3.278A5.784 5.784 0 0 0 80 50.778v40.444A5.783 5.783 0 0 0 85.778 97c2.286 0 4.25-1.346 5.186-3.278.635.24 1.317.39 2.036.39a5.783 5.783 0 0 0 5.778-5.779 5.68 5.68 0 0 0-.356-1.927c2.732-1.03 4.69-3.65 4.69-6.74 0-1.188-.317-2.294-.828-3.285C104.45 75.547 106 73.459 106 71c0-2.458-1.55-4.547-3.716-5.38.511-.99.827-2.098.827-3.287 0-3.087-1.957-5.708-4.689-6.74a5.678 5.678 0 0 0 .356-1.926A5.784 5.784 0 0 0 93 47.889zm7.222 14.444a4.338 4.338 0 0 1-4.333 4.334 4.339 4.339 0 0 1-4.333-4.334h-2.89c0 3.983 3.24 7.223 7.223 7.223 1.632 0 3.123-.565 4.333-1.482v.037a2.892 2.892 0 0 1 2.89 2.889 2.892 2.892 0 0 1-2.89 2.889v.038c-1.21-.918-2.701-1.483-4.333-1.483-3.982 0-7.222 3.24-7.222 7.223h2.889a4.339 4.339 0 0 1 4.333-4.334 4.339 4.339 0 0 1 4.333 4.334 4.334 4.334 0 0 1-3.538 4.253c-1.003-.838-2.277-1.364-3.684-1.364v2.888a2.892 2.892 0 0 1 2.889 2.89A2.892 2.892 0 0 1 93 91.221a2.892 2.892 0 0 1-2.889-2.889h-2.889c0 1.39.513 2.648 1.332 3.645a2.885 2.885 0 0 1-2.776 2.133 2.892 2.892 0 0 1-2.89-2.889V50.778a2.892 2.892 0 0 1 2.89-2.89c1.33 0 2.44.91 2.776 2.134-.819.997-1.332 2.257-1.332 3.645h2.89A2.892 2.892 0 0 1 93 50.777a2.892 2.892 0 0 1 2.889 2.89A2.892 2.892 0 0 1 93 56.556v2.888c1.407 0 2.68-.525 3.684-1.363a4.334 4.334 0 0 1 3.538 4.252z"></path><path fill="#6D737C" d="M101.593 46.953c-6.704-6.304-15.485-9.466-24.7-8.885l.177 2.864c8.42-.523 16.435 2.358 22.559 8.113 6.127 5.76 9.501 13.564 9.501 21.972a30.09 30.09 0 0 1-13.503 25.132c-2.916 1.935-5.123 4.694-6.483 7.884H68.795c-1.378-3.213-3.594-5.992-6.515-7.944-8.714-5.827-13.721-15.557-13.395-26.034l-2.869-.089c-.357 11.473 5.128 22.13 14.67 28.51 2.107 1.409 3.79 3.328 4.963 5.557h-3.867v2.87h5.012c.278.93.5 1.884.614 2.871H64.65v2.871h2.87v4.307c0 .794.643 1.435 1.435 1.435h1.435c0 4.75 3.86 8.613 8.608 8.613 4.748 0 8.61-3.863 8.61-8.613h1.434c.792 0 1.435-.641 1.435-1.435v-4.307h2.87v-2.87h-2.77c.102-.987.305-1.943.577-2.872h5.062v-2.87h-3.93a14.8 14.8 0 0 1 4.926-5.49C106.472 92.402 112 82.113 112 71.018a33.156 33.156 0 0 0-10.407-24.064zM79 124.13a5.746 5.746 0 0 1-5.739-5.742H84.74a5.746 5.746 0 0 1-5.74 5.742zm8.61-8.613H70.39v-2.87h17.217v2.87zm.102-5.742H70.276a19.556 19.556 0 0 0-.486-2.87h18.367c-.229.932-.36 1.896-.446 2.87zM44.417 47.917a5.673 5.673 0 0 1 5.666 5.666 1.416 1.416 0 1 0 2.834 0 5.673 5.673 0 0 1 5.666-5.666 1.416 1.416 0 1 0 0-2.834 5.672 5.672 0 0 1-5.666-5.666 1.416 1.416 0 1 0-2.834 0 5.672 5.672 0 0 1-5.666 5.666 1.417 1.417 0 0 0 0 2.834zM51.5 44.11a8.574 8.574 0 0 0 2.39 2.39 8.583 8.583 0 0 0-2.39 2.39 8.574 8.574 0 0 0-2.39-2.39 8.565 8.565 0 0 0 2.39-2.39zM49.583 61.917a1.416 1.416 0 1 0 0-2.834 5.672 5.672 0 0 1-5.666-5.666 1.416 1.416 0 1 0-2.834 0 5.672 5.672 0 0 1-5.666 5.666 1.417 1.417 0 0 0 0 2.834 5.673 5.673 0 0 1 5.666 5.666 1.416 1.416 0 1 0 2.834 0 5.673 5.673 0 0 1 5.666-5.666zm-7.083.973a8.574 8.574 0 0 0-2.39-2.39 8.583 8.583 0 0 0 2.39-2.39 8.592 8.592 0 0 0 2.39 2.39 8.583 8.583 0 0 0-2.39 2.39z"></path><circle cx="34" cy="78" r="3" fill="#7ABEDF"></circle><circle cx="115" cy="98" r="3" fill="#F79857"></circle></g></svg> 