<svg width="318" height="318" viewBox="0 0 318 318" fill="none" xmlns="http://www.w3.org/2000/svg">
<path opacity="0.1" d="M67.5544 23.0872C39.0658 43.8998 20.4226 78.9414 9.52985 115.894C-1.15337 152.847 -4.29548 191.499 7.64459 224.205C19.5847 256.91 46.3975 283.669 76.5619 299.809C106.726 315.737 140.242 321.259 169.778 316.162C199.524 310.853 225.499 295.137 246.237 275.811C266.975 256.698 282.685 234.399 296.72 207.427C310.545 180.456 322.695 149.025 316.201 122.053C309.917 95.0817 284.989 72.5702 258.177 51.1205C231.154 29.6708 202.456 9.49537 168.731 2.69943C134.796 -4.30889 96.2525 2.27468 67.5544 23.0872Z" fill="url(#paint0_linear_2788_1639)"/>
<defs>
<linearGradient id="paint0_linear_2788_1639" x1="159" y1="0" x2="159" y2="318" gradientUnits="userSpaceOnUse">
<stop stop-color="#00ADEF"/>
<stop offset="1" stop-color="#00ADEF" stop-opacity="0"/>
</linearGradient>
</defs>
</svg>
