<svg width="278" height="250" viewBox="0 0 278 250" fill="none" xmlns="http://www.w3.org/2000/svg">
<path d="M256.447 90.293C251.557 74.493 242.427 60.253 227.737 49.453C200.227 29.243 145.126 24.893 118.056 48.033C111.726 53.443 106.826 60.333 100.676 65.943C88.5665 76.993 76.7464 72.913 62.1364 74.673C11.6264 80.763 -15.3235 138.873 12.1765 181.483C31.2665 211.073 68.7364 224.253 102.326 227.583C136.696 230.983 180.186 230.223 210.496 212.303C236.256 197.083 255.746 170.423 259.726 140.483C261.986 123.473 261.337 106.103 256.447 90.293Z" fill="url(#paint0_linear_17_3883)"/>
<path d="M170.316 51.113C163.286 71.103 141.386 81.613 121.386 74.583C101.396 67.553 90.8859 45.653 97.9159 25.653C104.946 5.66302 126.846 -4.84698 146.846 2.18302C166.836 9.22302 177.346 31.123 170.316 51.113Z" fill="#29C7CC"/>
<path d="M114.326 39.493C115.176 36.373 117.596 33.923 120.706 33.043C125.006 31.843 130.756 29.603 132.076 26.013C133.286 22.733 134.396 19.543 135.146 17.363C135.716 15.683 137.336 14.583 139.106 14.673C141.286 14.773 142.976 16.603 142.906 18.783L142.656 26.683C142.576 29.323 144.246 31.703 146.756 32.523L150.946 33.893C154.036 34.903 155.866 38.093 155.176 41.273L152.386 54.193C151.116 60.063 145.006 63.513 139.316 61.563L119.126 54.613C114.546 53.033 111.966 48.173 113.236 43.493L114.326 39.493Z" fill="#FBFADC"/>
<path d="M115.196 62.923C122.976 76.613 118.196 94.013 104.506 101.803C90.8161 109.583 73.4158 104.803 65.6258 91.113C57.8458 77.423 62.6262 60.023 76.3162 52.233C90.0162 44.453 107.416 49.243 115.196 62.923Z" fill="url(#paint1_linear_17_3883)"/>
<path d="M101.626 69.2229C101.836 74.8829 101.116 80.4329 99.4561 85.8429C99.1761 86.7629 98.7164 87.6329 98.2364 88.4729C97.5064 89.7629 96.336 90.3329 94.876 90.1129C93.856 89.9629 92.8165 89.7729 91.8365 89.4229C87.4565 87.8629 83.3561 85.7329 79.3961 83.3329C77.6861 82.3029 76.226 80.9629 74.876 79.4929C71.436 75.7629 73.4065 70.6429 76.5865 68.7729C78.4165 67.6929 81.6161 68.5229 83.6861 68.7929C84.1861 68.8629 84.4364 68.7129 84.7164 68.2629C86.2864 65.7129 87.0561 62.4629 89.6661 60.9429C92.5961 59.2229 95.9564 59.5929 98.4664 61.8529C100.296 63.5029 101.086 65.6429 101.426 67.9929C101.496 68.4029 101.606 68.8129 101.626 69.2229Z" fill="#FBFADC"/>
<path d="M110.446 243.453H222.696C224.296 243.453 225.586 242.153 225.586 240.563V62.763C225.586 61.163 224.286 59.873 222.696 59.873H110.446C108.846 59.873 107.556 61.173 107.556 62.763V240.563C107.556 242.163 108.846 243.453 110.446 243.453Z" fill="#3656B3"/>
<path d="M217.786 221.303V68.853C217.786 67.863 216.986 67.063 215.996 67.063H117.146C116.156 67.063 115.356 67.863 115.356 68.853V221.303C115.356 222.293 116.156 223.093 117.146 223.093H215.996C216.986 223.093 217.786 222.293 217.786 221.303Z" fill="#1A1A1A"/>
<path d="M188.886 77.0231V65.6531H144.266V77.0231C144.266 77.4431 144.606 77.7831 145.026 77.7831H188.136C188.546 77.7831 188.886 77.4431 188.886 77.0231Z" fill="#3656B3"/>
<path d="M166.576 170.153C184.73 170.153 199.446 155.437 199.446 137.283C199.446 119.129 184.73 104.413 166.576 104.413C148.423 104.413 133.706 119.129 133.706 137.283C133.706 155.437 148.423 170.153 166.576 170.153Z" fill="url(#paint2_linear_17_3883)"/>
<path d="M161.286 154.203C159.796 154.203 158.376 153.593 157.346 152.523L146.357 141.073C144.267 138.893 144.336 135.433 146.516 133.343C148.696 131.253 152.156 131.323 154.246 133.503L161.256 140.803L178.876 122.083C180.946 119.883 184.407 119.783 186.607 121.853C188.807 123.923 188.907 127.383 186.837 129.583L165.276 152.493C164.246 153.583 162.816 154.203 161.326 154.213C161.306 154.203 161.296 154.203 161.286 154.203Z" fill="#FBFADC"/>
<path d="M171.676 199.643C171.676 202.463 169.396 204.743 166.576 204.743C163.756 204.743 161.476 202.463 161.476 199.643C161.476 196.823 163.756 194.543 166.576 194.543C169.396 194.543 171.676 196.823 171.676 199.643Z" fill="#FFB850"/>
<path d="M148.916 199.643C148.916 202.463 146.636 204.743 143.816 204.743C140.996 204.743 138.716 202.463 138.716 199.643C138.716 196.823 140.996 194.543 143.816 194.543C146.626 194.543 148.916 196.823 148.916 199.643Z" fill="#FF7C48"/>
<path d="M194.436 199.643C194.436 202.463 192.156 204.743 189.336 204.743C186.516 204.743 184.236 202.463 184.236 199.643C184.236 196.823 186.516 194.543 189.336 194.543C192.146 194.543 194.436 196.823 194.436 199.643Z" fill="#FBFADC"/>
<path d="M267.136 47.683H168.436C162.836 47.683 158.306 52.223 158.306 57.813V79.433C158.306 85.033 162.846 89.563 168.436 89.563H179.696C180.546 90.523 181.836 92.893 179.146 97.053C179.146 97.053 185.826 97.233 190.376 89.563H267.126C272.726 89.563 277.256 85.023 277.256 79.433V57.813C277.266 52.223 272.726 47.683 267.136 47.683Z" fill="url(#paint3_linear_17_3883)"/>
<path d="M260.987 60.983L259.496 64.013C259.316 64.383 258.957 64.643 258.547 64.703L255.206 65.1929C254.166 65.3429 253.757 66.6229 254.507 67.3529L256.926 69.7129C257.226 70.0029 257.356 70.4229 257.286 70.8329L256.717 74.1629C256.537 75.1929 257.626 75.9829 258.556 75.4929L261.547 73.923C261.917 73.733 262.356 73.733 262.726 73.923L265.717 75.4929C266.647 75.9829 267.726 75.1929 267.556 74.1629L266.987 70.8329C266.917 70.4229 267.056 70.0029 267.346 69.7129L269.766 67.3529C270.516 66.6229 270.107 65.3429 269.067 65.1929L265.726 64.703C265.316 64.643 264.957 64.383 264.777 64.013L263.286 60.983C262.786 60.043 261.447 60.043 260.987 60.983Z" fill="#FBFADC"/>
<path d="M238.817 60.983L237.326 64.013C237.146 64.383 236.786 64.643 236.376 64.703L233.036 65.1929C231.996 65.3429 231.587 66.6229 232.337 67.3529L234.757 69.7129C235.057 70.0029 235.186 70.4229 235.116 70.8329L234.547 74.1629C234.367 75.1929 235.456 75.9829 236.386 75.4929L239.376 73.923C239.746 73.733 240.186 73.733 240.556 73.923L243.547 75.4929C244.477 75.9829 245.556 75.1929 245.386 74.1629L244.817 70.8329C244.747 70.4229 244.886 70.0029 245.176 69.7129L247.596 67.3529C248.346 66.6229 247.936 65.3429 246.896 65.1929L243.556 64.703C243.146 64.643 242.787 64.383 242.607 64.013L241.116 60.983C240.616 60.043 239.277 60.043 238.817 60.983Z" fill="#FBFADC"/>
<path d="M216.646 60.983L215.156 64.013C214.976 64.383 214.616 64.643 214.206 64.703L210.866 65.1929C209.826 65.3429 209.416 66.6229 210.166 67.3529L212.587 69.7129C212.887 70.0029 213.016 70.4229 212.946 70.8329L212.376 74.1629C212.196 75.1929 213.286 75.9829 214.216 75.4929L217.206 73.923C217.576 73.733 218.016 73.733 218.386 73.923L221.376 75.4929C222.306 75.9829 223.386 75.1929 223.216 74.1629L222.646 70.8329C222.576 70.4229 222.716 70.0029 223.006 69.7129L225.426 67.3529C226.176 66.6229 225.766 65.3429 224.726 65.1929L221.386 64.703C220.976 64.643 220.616 64.383 220.436 64.013L218.946 60.983C218.456 60.043 217.116 60.043 216.646 60.983Z" fill="#FBFADC"/>
<path d="M194.487 60.983L192.996 64.013C192.816 64.383 192.457 64.643 192.047 64.703L188.706 65.1929C187.666 65.3429 187.257 66.6229 188.007 67.3529L190.426 69.7129C190.726 70.0029 190.856 70.4229 190.786 70.8329L190.217 74.1629C190.037 75.1929 191.126 75.9829 192.056 75.4929L195.047 73.923C195.417 73.733 195.856 73.733 196.226 73.923L199.217 75.4929C200.147 75.9829 201.226 75.1929 201.056 74.1629L200.487 70.8329C200.417 70.4229 200.556 70.0029 200.846 69.7129L203.266 67.3529C204.016 66.6229 203.607 65.3429 202.567 65.1929L199.226 64.703C198.816 64.643 198.457 64.383 198.277 64.013L196.786 60.983C196.286 60.043 194.947 60.043 194.487 60.983Z" fill="#FBFADC"/>
<path d="M172.317 60.983L170.826 64.013C170.646 64.383 170.286 64.643 169.876 64.703L166.536 65.1929C165.496 65.3429 165.087 66.6229 165.837 67.3529L168.257 69.7129C168.557 70.0029 168.686 70.4229 168.616 70.8329L168.047 74.1629C167.867 75.1929 168.956 75.9829 169.886 75.4929L172.876 73.923C173.246 73.733 173.686 73.733 174.056 73.923L177.047 75.4929C177.977 75.9829 179.056 75.1929 178.886 74.1629L178.317 70.8329C178.247 70.4229 178.386 70.0029 178.676 69.7129L181.096 67.3529C181.846 66.6229 181.436 65.3429 180.396 65.1929L177.056 64.703C176.646 64.643 176.287 64.383 176.107 64.013L174.616 60.983C174.126 60.043 172.787 60.043 172.317 60.983Z" fill="#FBFADC"/>
<path d="M249.566 118.843L253.586 114.823C254.026 114.383 254.026 113.663 253.586 113.213C253.146 112.773 252.426 112.773 251.976 113.213L247.956 117.233L243.936 113.213C243.496 112.773 242.776 112.773 242.336 113.213C241.896 113.653 241.896 114.373 242.336 114.823L246.356 118.843L242.336 122.863C241.896 123.303 241.896 124.023 242.336 124.473C242.556 124.693 242.846 124.803 243.136 124.803C243.426 124.803 243.716 124.693 243.936 124.473L247.956 120.453L251.976 124.473C252.196 124.693 252.486 124.803 252.776 124.803C253.066 124.803 253.356 124.693 253.576 124.473C254.016 124.033 254.016 123.313 253.576 122.863L249.566 118.843Z" fill="#3656B3"/>
<path d="M197.806 39.6531L203.626 30.5131L209.436 39.6531H197.806Z" fill="#FF7C48"/>
<path d="M235.576 198.243C234.806 198.243 234.046 198.173 233.286 198.033C233.106 198.003 232.996 197.833 233.026 197.653C233.056 197.473 233.226 197.363 233.406 197.393C237.466 198.133 241.806 196.743 244.726 193.773C247.366 191.093 248.736 187.213 248.426 183.433C245.716 184.693 242.476 184.483 240.266 182.743C239.606 182.223 238.766 181.343 238.526 180.143C238.156 178.293 239.506 176.283 241.466 175.743C243.196 175.273 245.226 175.903 246.636 177.353C247.796 178.533 248.586 180.243 248.926 182.293C249.206 182.253 249.446 182.083 249.686 181.893C252.086 179.983 253.486 176.623 253.346 173.103C253.226 170.133 252.116 166.993 250.026 163.783C249.926 163.633 249.976 163.433 250.126 163.333C250.276 163.233 250.476 163.283 250.576 163.433C252.726 166.743 253.876 169.983 253.996 173.073C254.146 176.793 252.646 180.363 250.096 182.393C249.756 182.663 249.406 182.903 249.046 183.103C249.456 187.153 248.016 191.343 245.186 194.223C242.656 196.803 239.116 198.243 235.576 198.243ZM242.646 176.243C242.306 176.243 241.966 176.283 241.636 176.373C240.016 176.813 238.856 178.513 239.156 180.013C239.356 181.023 240.086 181.773 240.666 182.233C242.706 183.843 245.836 183.993 248.346 182.743C248.326 182.623 248.316 182.513 248.296 182.393C247.976 180.473 247.246 178.883 246.186 177.793C245.196 176.813 243.886 176.243 242.646 176.243Z" fill="#1A1A1A"/>
<path d="M27.7962 99.063C27.6762 99.063 27.5662 99.003 27.5062 98.893C25.4862 95.053 25.7661 90.063 28.1961 86.473C29.6861 84.273 32.2459 82.443 34.9759 81.573C35.0959 78.543 36.8861 75.153 38.9061 73.423C41.7461 70.993 45.8959 70.123 49.4759 71.193C49.6459 71.243 49.7461 71.423 49.6961 71.593C49.6461 71.763 49.4662 71.863 49.2962 71.813C45.9262 70.803 42.006 71.633 39.326 73.913C37.496 75.473 35.8261 78.603 35.6361 81.383C37.9061 80.803 40.2458 80.903 42.1458 82.023C43.3058 82.703 44.0062 84.033 43.8362 85.263C43.7062 86.273 42.9958 87.033 41.8958 87.333C40.8758 87.613 39.7961 87.393 38.8861 87.143C36.8461 86.583 35.5458 85.273 35.1258 83.353C35.0458 82.993 34.9962 82.623 34.9862 82.243C32.3662 83.153 29.9962 84.983 28.7362 86.843C26.4362 90.243 26.1762 94.973 28.0862 98.603C28.1662 98.763 28.1061 98.953 27.9461 99.043C27.8961 99.043 27.8462 99.063 27.7962 99.063ZM35.616 82.023C35.626 82.423 35.6659 82.823 35.7459 83.193C36.1259 84.883 37.2362 86.003 39.0462 86.503C39.8762 86.733 40.8461 86.933 41.7161 86.703C42.5661 86.473 43.0859 85.923 43.1859 85.173C43.3159 84.213 42.736 83.123 41.806 82.573C39.936 81.453 37.726 81.423 35.616 82.023Z" fill="#1A1A1A"/>
<path d="M93.7163 140.963C94.2363 137.603 94.8663 133.983 94.0063 130.583C93.0763 126.893 90.376 124.373 86.746 123.363C85.986 123.153 85.1662 122.983 84.6162 122.413C84.1462 121.923 83.9761 121.203 84.0161 120.523C84.0661 119.573 84.4463 118.643 84.7363 117.753C85.5763 115.163 86.4163 112.563 87.2563 109.973L89.6962 102.453C89.7662 102.243 89.8061 102.033 89.8261 101.813C90.7661 88.833 75.8063 87.913 66.0063 89.033C56.1163 90.163 54.5464 100.033 54.1064 104.643C53.8964 106.833 53.6262 109.023 53.3662 111.213C53.1062 113.433 53.146 116.243 50.226 116.483C48.846 116.593 47.4959 116.073 46.1459 115.783C40.6359 114.593 34.5463 117.363 32.4863 122.743C32.0463 123.893 31.7762 125.123 31.6562 126.343C31.5562 127.363 31.736 129.013 30.956 129.833C30.116 130.723 28.2264 130.603 27.1064 130.723C22.0664 131.273 17.3863 134.443 15.0063 138.923C12.3163 143.983 13.076 149.603 15.246 154.673C16.506 157.633 18.9763 160.703 21.7563 162.393L74.1259 165.303C74.1259 165.283 93.3563 143.243 93.7163 140.963Z" fill="#1A1A1A"/>
<path d="M84.396 135.463C84.396 135.463 112.286 143.503 117.696 184.463L127.586 181.643C127.586 181.643 149.946 218.443 124.926 243.463H90.7061L84.396 135.463Z" fill="url(#paint4_linear_17_3883)"/>
<path d="M103.426 243.453H124.916C131.286 237.083 134.586 229.943 135.966 222.853C133.326 221.863 130.486 221.303 127.496 221.303C114.826 221.303 104.466 231.053 103.426 243.453Z" fill="#FFB850"/>
<g style="mix-blend-mode:overlay" opacity="0.5">
<path d="M136.696 211.483C136.686 211.353 136.676 211.223 136.666 211.093C132.796 222.493 122.656 236.853 96.1064 233.023C93.9664 232.713 92.0462 232.513 90.3262 232.413L90.9663 243.453H124.906C134.736 233.633 137.266 222.003 136.696 211.483Z" fill="url(#paint5_linear_17_3883)"/>
</g>
<path d="M60.0264 123.993C60.0264 123.993 71.2562 132.953 74.3662 132.733C77.4862 132.513 79.0962 125.633 79.0962 125.633C79.0962 125.633 74.0061 122.143 68.2461 122.083C62.6261 122.023 60.0264 123.993 60.0264 123.993Z" fill="#3656B3"/>
<path d="M82.5361 134.863C69.5861 131.893 48.5261 126.623 29.9761 149.933C11.4161 173.243 26.876 213.823 26.876 213.823L20.8364 243.523H104.176L101.826 213.093C101.666 210.983 101.916 208.863 102.576 206.853C104.356 201.443 107.906 189.523 108.236 179.633C108.676 166.363 95.4861 137.833 82.5361 134.863Z" fill="#29C7CC"/>
<path d="M55.8062 190.223L61.5664 164.573C61.5664 164.573 43.2562 143.053 38.8262 140.963C37.4262 142.073 36.036 143.313 34.646 144.683C34.376 144.953 34.1064 145.233 33.8364 145.503C33.7164 145.623 33.6362 145.713 33.5562 145.793C33.3462 146.013 33.1761 146.203 32.9961 146.393C32.8861 146.513 32.8163 146.593 32.7363 146.673C32.6163 146.803 32.5461 146.883 32.4761 146.963C32.2461 147.223 32.0763 147.413 31.9062 147.603C31.2362 148.373 31.1664 148.473 31.0864 148.563C30.9764 148.703 30.8962 148.793 30.8062 148.893C30.1362 149.713 30.0563 149.813 29.9663 149.923C11.4063 173.233 26.8662 213.813 26.8662 213.813L20.8262 243.513H90.7461C61.5661 236.353 55.8062 190.223 55.8062 190.223Z" fill="url(#paint6_linear_17_3883)"/>
<path d="M92.6858 178.363C92.8858 179.763 92.1559 181.023 91.0559 181.183C89.9559 181.343 88.9058 180.333 88.7058 178.923C88.5058 177.523 89.2362 176.263 90.3362 176.103C91.4362 175.953 92.4858 176.963 92.6858 178.363Z" fill="#FBFADC"/>
<path d="M92.0662 170.973C92.1162 172.323 91.326 173.453 90.306 173.483C89.286 173.523 88.416 172.453 88.366 171.103C88.316 169.753 89.1058 168.623 90.1258 168.593C91.1558 168.553 92.0262 169.623 92.0662 170.973Z" fill="#FBFADC"/>
<path d="M94.8162 192.283C94.8662 193.633 94.076 194.763 93.056 194.793C92.036 194.833 91.166 193.763 91.116 192.413C91.066 191.063 91.8558 189.933 92.8758 189.903C93.8958 189.873 94.7662 190.933 94.8162 192.283Z" fill="#FBFADC"/>
<path d="M87.5761 149.903C87.8061 151.233 87.1662 152.453 86.1562 152.623C85.1462 152.793 84.1459 151.853 83.9159 150.523C83.6859 149.193 84.3264 147.973 85.3364 147.803C86.3564 147.623 87.3561 148.563 87.5761 149.903Z" fill="#FBFADC"/>
<path d="M96.3364 214.783C96.3364 216.133 95.5063 217.233 94.4863 217.233C93.4663 217.233 92.6362 216.133 92.6362 214.783C92.6362 213.433 93.4663 212.333 94.4863 212.333C95.5063 212.333 96.3364 213.433 96.3364 214.783Z" fill="#FBFADC"/>
<path d="M96.3364 236.353C96.3364 237.703 95.5063 238.803 94.4863 238.803C93.4663 238.803 92.6362 237.703 92.6362 236.353C92.6362 235.003 93.4663 233.903 94.4863 233.903C95.5063 233.903 96.3364 234.993 96.3364 236.353Z" fill="#FBFADC"/>
<path d="M117.586 194.053L102.386 193.723C102.386 193.723 100.396 191.913 101.206 189.983L110.626 167.563C111.086 166.473 112.146 165.763 113.336 165.763H127.006C129.106 165.763 130.376 168.153 130.376 168.153L120.296 192.253C119.836 193.343 118.776 194.053 117.586 194.053Z" fill="#FBFADC"/>
<path d="M118.386 194.913H104.716C102.616 194.913 101.196 192.773 102.006 190.843L111.426 168.423C111.886 167.333 112.946 166.623 114.136 166.623H127.806C129.906 166.623 131.326 168.763 130.516 170.693L121.096 193.113C120.636 194.203 119.566 194.913 118.386 194.913Z" fill="#D2D2D2"/>
<g style="mix-blend-mode:overlay">
<path d="M118.386 194.913H104.716C102.616 194.913 101.196 192.773 102.006 190.843L111.426 168.423C111.886 167.333 112.946 166.623 114.136 166.623H127.806C129.906 166.623 131.326 168.763 130.516 170.693L121.096 193.113C120.636 194.203 119.566 194.913 118.386 194.913Z" fill="url(#paint7_linear_17_3883)"/>
</g>
<path d="M120.086 174.393C119.866 175.253 119.096 175.803 118.366 175.613C117.636 175.433 117.216 174.583 117.436 173.723C117.656 172.863 118.426 172.313 119.156 172.503C119.886 172.683 120.306 173.523 120.086 174.393Z" fill="#FBFADC"/>
<path d="M124.346 176.283C123.336 175.593 121.616 174.033 122.106 172.593C122.766 170.663 125.766 171.693 129.066 173.563C132.366 175.433 131.806 178.273 130.376 179.143C130.366 179.953 130.316 182.583 128.446 183.293C128.446 183.293 130.666 187.913 123.056 188.453L123.796 186.513C123.796 186.513 118.676 184.633 118.936 181.913C119.126 179.893 121.066 180.393 122.106 180.763C121.086 180.303 118.666 178.423 119.076 176.813C119.626 174.653 121.786 175.333 124.346 176.283Z" fill="url(#paint8_linear_17_3883)"/>
<path d="M130.376 179.393C129.716 178.803 126.497 177.413 124.447 176.603C124.317 176.553 124.246 176.403 124.306 176.273C124.356 176.143 124.506 176.073 124.636 176.133C125.166 176.343 129.857 178.223 130.567 178.973C130.667 179.073 130.656 179.243 130.556 179.333C130.506 179.373 130.446 179.393 130.376 179.393Z" fill="#C65347"/>
<path d="M128.446 183.553C126.796 182.253 122.086 181.033 122.046 181.023C121.906 180.983 121.826 180.843 121.866 180.713C121.906 180.573 122.046 180.493 122.176 180.523C122.376 180.573 127.046 181.783 128.616 183.103C128.726 183.193 128.736 183.353 128.646 183.463C128.596 183.513 128.516 183.553 128.446 183.553Z" fill="#C65347"/>
<path d="M55.8061 190.543C55.5661 190.503 55.4563 190.333 55.4863 190.163C56.4863 184.873 61.2063 164.703 61.2563 164.503C61.2963 164.333 61.476 164.223 61.646 164.263C61.816 164.303 61.9262 164.473 61.8862 164.653C61.8362 164.853 57.1159 185.013 56.1259 190.283C56.0959 190.433 55.9561 190.543 55.8061 190.543Z" fill="#1A7C7C"/>
<path d="M67.2861 108.443L63.4663 130.983L75.7964 133.073L78.1064 119.443L67.2861 108.443Z" fill="url(#paint9_linear_17_3883)"/>
<path d="M70.096 109.493C70.096 109.493 69.086 119.373 76.136 123.353C78.896 124.903 81.716 124.633 83.636 123.493C86.626 121.713 87.9961 117.213 88.5061 114.173C89.3861 108.913 89.9562 104.803 89.7962 102.143L87.136 94.193L74.576 94.523L70.096 109.493Z" fill="#FFAF99"/>
<path d="M78.6258 120.983C71.9058 117.193 71.5659 108.733 71.6459 105.983L70.9359 106.663L70.0863 109.493C70.0863 109.493 69.0758 119.373 76.1258 123.353C78.8858 124.903 81.7058 124.633 83.6258 123.493C84.2458 123.123 84.7962 122.643 85.2762 122.083C83.4162 122.483 81.0058 122.323 78.6258 120.983Z" fill="url(#paint10_linear_17_3883)"/>
<path d="M80.0864 110.713C79.5664 112.083 78.0262 112.773 76.6562 112.253C75.2862 111.733 74.5961 110.193 75.1161 108.823C75.6361 107.453 77.1663 106.763 78.5463 107.283C79.9163 107.803 80.6064 109.343 80.0864 110.713Z" fill="#EA7D6A"/>
<path d="M89.4561 107.763C88.4561 107.383 87.366 107.653 86.646 108.363C87.446 108.703 88.2961 109.153 88.2461 109.523C88.1861 110.013 86.9461 110.573 85.9561 110.953C86.1761 111.743 86.7464 112.423 87.5664 112.733C87.9064 112.863 88.3563 112.913 88.7163 112.903C89.0263 111.023 89.2861 109.313 89.4761 107.773C89.4661 107.773 89.4661 107.763 89.4561 107.763Z" fill="#EA7D6A"/>
<path d="M86.1362 107.123C85.8462 107.093 85.6359 106.833 85.6659 106.543L85.8061 105.233C85.8361 104.943 86.0962 104.733 86.3862 104.763C86.6762 104.793 86.8864 105.053 86.8564 105.343L86.7162 106.653C86.6962 106.943 86.4362 107.153 86.1362 107.123Z" fill="#93372B"/>
<path d="M78.6962 106.593C78.4062 106.563 78.196 106.303 78.226 106.013L78.3661 104.703C78.3961 104.413 78.6562 104.203 78.9462 104.233C79.2362 104.263 79.4459 104.523 79.4159 104.813L79.2763 106.123C79.2463 106.413 78.9862 106.623 78.6962 106.593Z" fill="#93372B"/>
<path d="M79.0962 125.633L74.186 131.193L60.0264 123.993L55.1064 133.113L66.686 142.773C67.446 143.393 68.5661 143.303 69.2061 142.563L74.1362 136.883L78.396 141.883C79.086 142.693 80.4162 142.343 80.6162 141.303L81.896 134.723L79.0962 125.633Z" fill="#FBFADC"/>
<path d="M84.3958 243.573C84.2158 243.573 84.076 243.433 84.076 243.253C84.076 243.013 83.856 219.303 85.286 206.873C85.446 205.463 85.6262 204.043 85.7962 202.623C87.1862 191.313 88.6263 179.613 84.6063 167.363C80.1063 153.643 73.896 137.173 73.826 137.003C73.806 136.883 73.8563 131.193 73.8563 131.193C73.8563 131.013 73.9759 130.893 74.1859 130.873C74.3659 130.873 74.5062 131.023 74.5062 131.203L74.4559 136.833C74.8659 137.913 80.8561 153.833 85.2161 167.163C89.2761 179.553 87.8359 191.323 86.4359 202.703C86.2659 204.133 86.0861 205.543 85.9261 206.953C84.5061 219.343 84.7161 243.013 84.7161 243.253C84.7161 243.423 84.5758 243.563 84.3958 243.573Z" fill="#1A7C7C"/>
<path d="M80.636 112.733C81.116 113.243 81.1659 114.333 81.9559 114.523C82.4759 114.653 82.9759 114.293 83.5159 114.443C84.3359 114.673 84.4361 115.493 83.9461 116.183C83.4561 116.873 81.406 117.663 80.096 116.673C79.146 115.953 78.656 114.583 78.806 113.403C78.836 113.163 78.916 112.933 79.076 112.753C79.376 112.423 79.956 112.333 80.346 112.523C80.456 112.573 80.556 112.653 80.636 112.733Z" fill="#1A1A1A"/>
<path d="M78.8061 113.463C79.9961 113.493 80.956 114.473 80.956 115.673C80.956 116.143 80.8061 116.573 80.5561 116.933C80.3961 116.863 80.2362 116.783 80.0962 116.673C79.1562 115.963 78.6761 114.623 78.8061 113.463Z" fill="#DD6050"/>
<path d="M84.7161 111.703C84.5761 111.703 84.446 111.613 84.406 111.473C84.356 111.303 84.4557 111.123 84.6257 111.073C86.3057 110.563 87.8858 109.813 87.9358 109.483C87.8958 109.383 87.406 108.983 85.886 108.403C85.196 108.143 84.6859 107.603 84.5159 106.943C84.1959 105.723 84.5962 104.493 84.6062 104.443C84.6662 104.273 84.8459 104.183 85.0159 104.233C85.1859 104.293 85.2758 104.473 85.2258 104.643C85.2258 104.653 84.8658 105.743 85.1458 106.773C85.2658 107.223 85.6357 107.603 86.1257 107.793C88.3857 108.653 88.6362 109.163 88.5862 109.563C88.4662 110.493 85.9162 111.363 84.8162 111.693C84.7762 111.703 84.7461 111.703 84.7161 111.703Z" fill="#C65347"/>
<path d="M18.8563 153.383C18.6663 153.383 18.4859 153.253 18.4359 153.053C18.3559 152.683 16.4861 143.873 21.8261 138.933C24.8461 136.133 28.0859 136.493 30.6859 136.773C32.7059 136.993 34.2962 137.163 35.2362 135.893C36.1662 134.633 36.2263 132.683 36.2963 130.623C36.3963 127.593 36.5163 124.153 39.3563 121.753C42.0463 119.483 45.0962 120.733 47.7762 121.833C49.9662 122.733 52.0361 123.573 53.6161 122.463C56.0161 120.773 56.356 116.233 56.746 110.983C56.946 108.283 57.1559 105.493 57.6659 102.733C57.7059 102.503 57.9259 102.343 58.1659 102.393C58.3959 102.433 58.5462 102.653 58.5062 102.883C58.0062 105.593 57.8063 108.363 57.6063 111.043C57.1963 116.513 56.8461 121.233 54.1161 123.153C52.1561 124.533 49.7662 123.563 47.4662 122.613C44.8862 121.553 42.2159 120.463 39.9159 122.403C37.3559 124.563 37.2561 127.653 37.1561 130.653C37.0861 132.843 37.0162 134.913 35.9262 136.393C34.6962 138.063 32.7063 137.843 30.6063 137.613C28.0563 137.333 25.1559 137.023 22.4159 139.553C17.4459 144.153 19.266 152.773 19.286 152.863C19.336 153.093 19.1962 153.323 18.9662 153.373C18.9162 153.373 18.8863 153.383 18.8563 153.383Z" fill="#3656B3"/>
<path d="M243.516 244.453H27.5562C27.0062 244.453 26.5664 244.013 26.5664 243.463C26.5664 242.913 27.0162 242.473 27.5562 242.473H243.516C244.066 242.473 244.506 242.913 244.506 243.463C244.506 244.003 244.066 244.453 243.516 244.453Z" fill="#1A1A1A"/>
<path d="M81.4665 179.003C62.2765 185.663 60.4363 187.683 53.8063 191.353C51.5063 192.623 48.9864 189.903 50.1564 187.543C53.4964 180.823 63.5065 160.683 63.5065 160.683C67.2065 153.243 64.6762 144.213 57.6462 139.783C51.2962 135.773 43.0264 136.663 37.6564 141.923C30.7764 148.653 21.4465 158.913 13.9265 171.313C-1.57355 196.873 -12.7736 237.843 29.4064 247.993C71.5764 258.143 83.8662 199.383 84.9162 190.223L81.4665 179.003Z" fill="#29C7CC"/>
<path d="M33.3961 208.883C33.0361 208.653 33.0464 208.453 33.1764 208.323C41.3164 200.493 48.3863 194.533 53.6363 191.083C59.8063 187.023 64.0363 184.763 81.3663 178.693C81.5363 178.633 81.7165 178.723 81.7765 178.893C81.8365 179.063 81.7463 179.243 81.5763 179.303C64.3163 185.353 60.1064 187.593 53.9864 191.623C48.7764 195.053 41.7361 200.983 33.6261 208.793C33.5561 208.853 33.4761 208.883 33.3961 208.883Z" fill="#1A7C7C"/>
<path d="M19.5664 214.783C12.1564 214.783 5.54645 218.133 1.10645 223.373C3.89645 234.603 12.2162 243.853 29.3862 247.983C33.7362 249.033 37.7761 249.343 41.5161 249.053C42.9361 245.983 43.7461 242.573 43.7461 238.963C43.7461 225.613 32.9264 214.783 19.5664 214.783Z" fill="#FFB850"/>
<g style="mix-blend-mode:overlay" opacity="0.5">
<path d="M84.9061 190.223L83.9359 187.053C80.2759 204.343 66.2458 248.093 29.3958 239.223C9.56583 234.453 1.53589 222.873 0.205891 209.273C0.175891 209.593 0.155812 209.913 0.125812 210.233C-1.05419 227.063 5.86583 242.323 29.3958 247.983C71.5658 258.133 83.8561 199.373 84.9061 190.223Z" fill="url(#paint11_linear_17_3883)"/>
</g>
<path d="M98.2062 173.353C95.3462 172.413 92.5165 172.003 88.5265 174.143C84.5465 176.283 81.4664 179.003 81.4664 179.003C81.4664 179.003 79.5864 184.803 84.9064 190.223L94.9161 187.883C94.9161 187.883 100.557 189.563 101.587 187.163C102.047 186.103 101.626 185.243 101.016 184.623C101.766 184.463 102.656 184.143 102.956 183.423C103.276 182.643 102.826 181.753 102.416 181.163C104.476 181.843 109.447 183.203 110.297 180.813C111.357 177.773 101.066 174.293 98.2062 173.353Z" fill="url(#paint12_linear_17_3883)"/>
<path d="M102.406 181.483C99.2661 179.263 96.5463 178.783 96.5263 178.783C96.3463 178.753 96.2362 178.583 96.2562 178.413C96.2862 178.233 96.4559 178.123 96.6259 178.143C96.7459 178.163 99.5261 178.653 102.596 180.903C102.736 181.003 102.776 181.213 102.666 181.353C102.606 181.433 102.506 181.483 102.406 181.483Z" fill="#C65347"/>
<path d="M101.016 184.943C99.326 183.743 94.8561 182.773 94.8061 182.763C94.6361 182.723 94.5161 182.553 94.5561 182.383C94.5961 182.213 94.766 182.093 94.936 182.133C95.126 182.173 99.606 183.143 101.206 184.373C101.346 184.483 101.376 184.683 101.266 184.823C101.206 184.903 101.116 184.943 101.016 184.943Z" fill="#C65347"/>
<path d="M94.916 188.203C94.556 187.953 94.566 187.753 94.706 187.633C94.806 187.543 97.1464 185.553 98.8564 186.633C99.0064 186.733 99.056 186.933 98.956 187.083C98.856 187.233 98.6563 187.273 98.5063 187.183C97.2063 186.353 95.1459 188.103 95.1259 188.123C95.0659 188.173 94.996 188.203 94.916 188.203Z" fill="#C65347"/>
<path d="M82.5864 91.433C76.2864 91.073 71.4663 96.103 71.4663 96.103L62.2661 102.353L58.0161 123.933L38.0161 126.613C38.0161 126.613 40.046 135.503 53.396 138.713C68.626 142.373 70.0461 126.023 70.4961 120.853C70.8661 116.683 72.0661 106.063 72.4761 102.803C73.1161 102.613 77.3661 101.283 78.7061 98.583C78.9961 98.013 79.2162 97.403 79.3862 96.803C79.8862 98.733 80.8461 100.703 82.7261 100.213C84.3161 99.803 84.936 97.843 85.146 95.803C86.396 97.993 87.9464 101.843 89.7964 102.133C89.8064 102.143 88.8964 91.793 82.5864 91.433Z" fill="#1A1A1A"/>
<path d="M52.5162 134.063C49.0562 134.063 46.5362 131.953 46.4962 131.913C46.3162 131.763 46.2964 131.493 46.4464 131.313C46.5964 131.133 46.8665 131.113 47.0465 131.263C47.2765 131.463 52.8061 136.063 58.6261 130.463C64.3661 124.933 64.0365 108.133 64.0265 107.963C64.0165 107.723 64.2064 107.533 64.4464 107.523C64.6764 107.533 64.8764 107.703 64.8864 107.943C64.9064 108.653 65.2264 125.283 59.2164 131.073C56.8764 133.353 54.5362 134.063 52.5162 134.063Z" fill="#3656B3"/>
<path d="M63.576 102.473C60.796 105.263 62.7459 109.643 65.7659 111.383C66.3459 108.183 66.7758 104.923 68.1458 101.973C66.6758 101.303 64.966 101.073 63.576 102.473Z" fill="url(#paint13_linear_17_3883)"/>
<path d="M66.1161 109.363C66.4661 107.383 66.8463 105.403 67.5063 103.523C66.6963 103.253 65.8163 103.253 65.0663 104.003C63.4263 105.633 64.4161 108.163 66.1161 109.363Z" fill="#DD6050"/>
<defs>
<linearGradient id="paint0_linear_17_3883" x1="131.085" y1="229.189" x2="131.085" y2="32.4232" gradientUnits="userSpaceOnUse">
<stop stop-color="#F7FFFF"/>
<stop offset="1" stop-color="#B9DAFF"/>
</linearGradient>
<linearGradient id="paint1_linear_17_3883" x1="90.4168" y1="48.5058" x2="90.4168" y2="105.534" gradientUnits="userSpaceOnUse">
<stop offset="0.1941" stop-color="#FF6A48"/>
<stop offset="1" stop-color="#FF5533"/>
</linearGradient>
<linearGradient id="paint2_linear_17_3883" x1="166.573" y1="104.416" x2="166.573" y2="170.157" gradientUnits="userSpaceOnUse">
<stop offset="0.1941" stop-color="#FF6A48"/>
<stop offset="1" stop-color="#FF5533"/>
</linearGradient>
<linearGradient id="paint3_linear_17_3883" x1="277.265" y1="72.3724" x2="158.303" y2="72.3724" gradientUnits="userSpaceOnUse">
<stop stop-color="#FFA540"/>
<stop offset="0.9749" stop-color="#FFB850"/>
</linearGradient>
<linearGradient id="paint4_linear_17_3883" x1="110.583" y1="117.772" x2="110.583" y2="264.838" gradientUnits="userSpaceOnUse">
<stop offset="0.218" stop-color="#29C7CC"/>
<stop offset="0.7766" stop-color="#228AA6"/>
</linearGradient>
<linearGradient id="paint5_linear_17_3883" x1="113.552" y1="205.792" x2="113.552" y2="249.864" gradientUnits="userSpaceOnUse">
<stop offset="0.00558659" stop-color="#808080"/>
<stop offset="1"/>
</linearGradient>
<linearGradient id="paint6_linear_17_3883" x1="55.7968" y1="140.967" x2="55.7968" y2="243.52" gradientUnits="userSpaceOnUse">
<stop offset="0.00558659" stop-color="#808080"/>
<stop offset="1"/>
</linearGradient>
<linearGradient id="paint7_linear_17_3883" x1="101.777" y1="180.77" x2="130.745" y2="180.77" gradientUnits="userSpaceOnUse">
<stop offset="0.00558659" stop-color="#808080"/>
<stop offset="1"/>
</linearGradient>
<linearGradient id="paint8_linear_17_3883" x1="133.018" y1="184.271" x2="118.91" y2="177.561" gradientUnits="userSpaceOnUse">
<stop offset="0.00558659" stop-color="#FFAF99"/>
<stop offset="1" stop-color="#ED6F5F"/>
</linearGradient>
<linearGradient id="paint9_linear_17_3883" x1="69.1113" y1="135.077" x2="70.9238" y2="124.39" gradientUnits="userSpaceOnUse">
<stop offset="0.00558659" stop-color="#FFAF99"/>
<stop offset="1" stop-color="#ED6F5F"/>
</linearGradient>
<linearGradient id="paint10_linear_17_3883" x1="79.5913" y1="113.525" x2="67.0395" y2="121.374" gradientUnits="userSpaceOnUse">
<stop offset="0.00558659" stop-color="#FFAF99"/>
<stop offset="1" stop-color="#ED6F5F"/>
</linearGradient>
<linearGradient id="paint11_linear_17_3883" x1="42.4523" y1="187.053" x2="42.4523" y2="249.161" gradientUnits="userSpaceOnUse">
<stop offset="0.00558659" stop-color="#808080"/>
<stop offset="1"/>
</linearGradient>
<linearGradient id="paint12_linear_17_3883" x1="111.771" y1="177.233" x2="44.4522" y2="191.451" gradientUnits="userSpaceOnUse">
<stop offset="0.00558659" stop-color="#FFAF99"/>
<stop offset="1" stop-color="#ED6F5F"/>
</linearGradient>
<linearGradient id="paint13_linear_17_3883" x1="69.2135" y1="107.079" x2="63.5607" y2="105.871" gradientUnits="userSpaceOnUse">
<stop offset="0.00558659" stop-color="#FFAF99"/>
<stop offset="1" stop-color="#F58C79"/>
</linearGradient>
</defs>
</svg>
