<svg width="271" height="232" viewBox="0 0 271 232" fill="none" xmlns="http://www.w3.org/2000/svg">
<path d="M265.949 115.923C264.559 97.3628 258.059 78.6428 247.009 61.8228C221.619 23.1728 177.249 5.54281 132.099 7.33281C117.109 7.92281 100.889 11.0128 89.019 20.8128C75.439 32.0228 75.0691 49.5328 59.3291 59.3028C50.2691 64.9228 39.999 68.4228 31.019 74.1828C4.669 91.0828 -6.30092 127.283 3.59908 156.993C24.1791 218.723 114.769 229.553 169.519 220.663C190.839 217.203 211.869 209.933 229.209 197.053C254.779 178.033 268.329 147.643 265.949 115.923Z" fill="url(#paint0_linear_17_3982)"/>
<path d="M142.059 35.6529C143.489 34.7429 147.249 32.1229 145.709 30.7629C143.829 29.0929 140.799 33.0829 140.799 33.0829C140.799 33.0829 140.419 28.9529 138.159 29.2429C136.499 29.4529 137.579 32.4129 138.269 33.9629C136.089 33.6829 133.649 33.8929 131.609 34.2029C131.099 33.3029 129.009 30.3329 124.429 31.5029C119.069 32.8829 119.789 36.6729 119.789 36.6729C119.789 36.6729 113.039 37.4929 113.169 43.8029C113.299 50.2129 118.889 51.3629 118.889 51.3629L129.439 47.2129L132.469 64.0129L145.929 58.7529C147.799 49.2629 145.599 39.2929 142.059 35.6529Z" fill="#1A1A1A"/>
<path d="M257.409 68.0328H213.389C212.729 68.0328 212.199 67.5028 212.199 66.8428V22.8228C212.199 22.1628 212.739 21.6328 213.389 21.6328H257.409C258.069 21.6328 258.599 22.1628 258.599 22.8228V66.8428C258.599 67.5028 258.069 68.0328 257.409 68.0328Z" fill="#3656B3"/>
<path d="M251.089 59.6528L236.879 28.5628C236.599 27.9428 235.979 27.5428 235.299 27.5428C234.619 27.5428 233.999 27.9428 233.719 28.5628L224.009 49.8028L219.509 59.6528C219.109 60.5228 219.499 61.5628 220.369 61.9628C220.599 62.0728 220.849 62.1228 221.089 62.1228C221.749 62.1228 222.379 61.7428 222.669 61.1028L226.729 52.2228H243.869L247.929 61.1028C248.329 61.9728 249.359 62.3628 250.239 61.9628C251.109 61.5528 251.489 60.5228 251.089 59.6528ZM228.319 48.7328L235.299 33.4628L242.279 48.7328H228.319Z" fill="#FBFADC"/>
<path d="M127.279 79.9329C127.279 79.9329 102.899 86.5429 92.229 108.393C90.449 100.683 88.0391 92.1729 85.3091 87.4829L67.769 89.0029L59.709 125.443L132.009 124.903L127.279 79.9329Z" fill="#3656B3"/>
<g style="mix-blend-mode:overlay" opacity="0.5">
<path d="M127.279 79.9329C127.279 79.9329 102.899 86.5429 92.229 108.393C90.449 100.683 88.0391 92.1729 85.3091 87.4829L67.769 89.0029L59.709 125.443L132.009 124.903L127.279 79.9329Z" fill="url(#paint1_linear_17_3982)"/>
</g>
<path d="M232.879 78.3328L215.339 76.8128C215.339 76.8128 205.669 88.8528 205.309 105.133C202.009 100.413 199.169 94.6528 196.079 91.3428C176.099 69.9228 155.099 72.3828 142.249 74.8728C114.419 80.2828 106.659 98.6228 106.639 120.283C106.619 144.253 111.519 170.043 111.519 170.043H207.309L206.429 163.983C248.619 167.293 243.529 125.443 241.689 112.823C239.039 94.5928 232.879 78.3328 232.879 78.3328Z" fill="url(#paint2_linear_17_3982)"/>
<path d="M61.379 31.4929C59.509 31.7129 57.649 31.9929 55.819 32.3529C51.369 33.2229 45.2592 34.3929 43.3092 39.0429C41.0892 44.3329 41.1292 50.8329 41.3492 56.4629C41.7692 67.3129 41.7093 75.9429 49.1593 78.8529C56.6093 81.7629 69.449 81.8529 77.049 80.7229C84.659 79.5829 88.5492 76.1629 89.0792 67.7929C89.3992 62.7629 89.1794 57.6729 88.9694 52.6429C88.8494 49.8629 88.6194 47.0929 88.5094 44.3129C88.3194 39.3329 87.7791 34.4829 82.7491 32.1529C76.3191 29.1929 68.149 30.6929 61.379 31.4929Z" fill="#FFB850"/>
<path d="M81.0391 43.173C81.0391 46.163 78.6091 48.593 75.6191 48.593C72.6291 48.593 70.1992 46.163 70.1992 43.173C70.1992 40.183 72.6291 37.7529 75.6191 37.7529C78.6091 37.7529 81.0391 40.183 81.0391 43.173Z" fill="#FBFADC"/>
<path d="M65.0488 60.223C57.1988 60.113 57.629 52.2529 49.999 52.2529C46.559 52.2529 43.5588 53.5729 41.2988 55.0129C41.3088 55.5129 41.3291 55.993 41.3491 56.473C41.7691 67.323 41.7092 75.953 49.1592 78.863C56.6092 81.773 69.4488 81.863 77.0488 80.733C84.6588 79.593 88.5491 76.1729 89.0791 67.8029C89.3591 63.3829 89.2291 58.9229 89.0391 54.5029C79.2791 52.5829 71.5788 60.313 65.0488 60.223Z" fill="url(#paint3_linear_17_3982)"/>
<path d="M89.119 56.7128C89.069 55.3528 89.0188 54.0028 88.9588 52.6428C88.9488 52.4028 88.939 52.1629 88.929 51.9229C83.019 51.3329 76.9491 53.5728 72.7591 55.4328C69.9191 56.6928 67.2687 57.8828 65.0887 57.8528C62.1687 57.8128 60.9088 56.4528 59.1688 54.5628C57.2388 52.4728 54.8491 49.8828 50.0091 49.8828C47.1091 49.8828 43.6791 50.6828 41.2591 51.7328C41.2491 53.3428 41.2987 54.9328 41.3587 56.4628C41.3687 56.6728 41.3787 56.8828 41.3787 57.0928C43.5787 55.8228 47.0191 54.6129 50.0091 54.6129C52.7791 54.6129 54.009 55.9428 55.699 57.7728C57.649 59.8828 60.0791 62.5128 65.0291 62.5828C68.3091 62.5828 71.409 61.2128 74.679 59.7528C78.869 57.8928 84.179 55.9828 89.119 56.7128Z" fill="#FBFADC"/>
<path d="M82.5592 74.8929C77.4892 72.9929 69.9494 76.1828 69.9494 76.1828C69.9494 76.1828 63.9091 67.3729 60.1891 68.9529C59.2991 69.3329 58.9594 70.1229 58.9494 71.0929C57.6294 69.8329 56.2693 69.0829 55.1593 69.6629C53.2493 70.6629 54.2494 73.8129 55.4494 76.3229C53.9794 74.1529 51.8892 72.0429 50.0592 73.8429C47.7192 76.1229 53.1991 83.8429 60.1891 84.1629C62.7691 84.2829 68.3493 83.7229 68.3493 83.7229L67.7692 89.0129C67.7692 89.0129 79.7992 92.2728 85.3092 87.4928C85.3192 87.4828 87.6292 76.7929 82.5592 74.8929Z" fill="url(#paint4_linear_17_3982)"/>
<path d="M60.6992 84.2829C58.3292 82.3029 55.1891 76.5629 55.0591 76.3229C54.9691 76.1629 55.029 75.9729 55.189 75.8829C55.349 75.7929 55.5389 75.8529 55.6289 76.0129C55.6589 76.0729 58.8392 81.8929 60.9092 83.7229C61.0392 83.8429 61.059 84.0429 60.939 84.1829C60.879 84.2429 60.7892 84.2829 60.6992 84.2829Z" fill="#C65347"/>
<path d="M66.3892 82.9029C62.5392 79.1929 58.8192 71.5529 58.6592 71.2229C58.5792 71.0629 58.6491 70.8729 58.8091 70.7929C58.9691 70.7129 59.1593 70.7829 59.2393 70.9429C59.2793 71.0229 63.0689 78.8129 66.6089 82.3529C66.7389 82.4829 66.7389 82.6828 66.6089 82.8128C66.5589 82.8728 66.4792 82.9029 66.3892 82.9029Z" fill="#C65347"/>
<path d="M218.099 64.2228C223.169 62.3228 230.709 65.5128 230.709 65.5128C230.709 65.5128 236.749 56.7028 240.469 58.2828C241.359 58.6628 241.699 59.4528 241.709 60.4228C243.029 59.1628 244.389 58.4128 245.499 58.9928C247.409 59.9928 246.409 63.1428 245.209 65.6528C246.679 63.4828 248.769 61.3728 250.609 63.1728C252.949 65.4528 247.469 73.1728 240.479 73.4928C237.899 73.6128 232.319 73.0628 232.319 73.0628L232.899 78.3528C232.899 78.3528 220.869 81.6128 215.359 76.8328C215.349 76.8128 213.029 66.1228 218.099 64.2228Z" fill="url(#paint5_linear_17_3982)"/>
<path d="M239.959 73.6028C239.599 73.3628 239.609 73.1528 239.749 73.0328C241.819 71.2128 244.999 65.3828 245.029 65.3228C245.119 65.1628 245.309 65.1128 245.469 65.1928C245.629 65.2828 245.689 65.4728 245.599 65.6328C245.469 65.8728 242.329 71.6128 240.169 73.5128C240.109 73.5828 240.029 73.6028 239.959 73.6028Z" fill="#C65347"/>
<path d="M234.269 72.2329C233.909 72.0129 233.909 71.8028 234.039 71.6828C237.579 68.1428 241.369 60.3529 241.409 60.2729C241.489 60.1129 241.679 60.0428 241.839 60.1228C241.999 60.2028 242.069 60.3928 241.989 60.5528C241.829 60.8728 238.109 68.5128 234.489 72.1328C234.439 72.2028 234.349 72.2329 234.269 72.2329Z" fill="#C65347"/>
<path d="M246.979 227.663H12.439C11.889 227.663 11.4492 227.223 11.4492 226.673C11.4492 226.123 11.889 225.683 12.439 225.683H246.979C247.529 225.683 247.969 226.123 247.969 226.673C247.969 227.223 247.529 227.663 246.979 227.663Z" fill="#1A1A1A"/>
<path d="M132.479 74.413C132.479 74.413 134.589 71.3529 140.019 68.7629C145.449 66.1729 151.019 66.223 151.019 66.223L141.009 78.953L132.479 74.413Z" fill="#1A1A1A"/>
<path d="M145.929 58.7629C146.009 58.7329 153.049 76.963 153.049 76.963L138.669 82.5829L131.169 63.413L142.049 57.293C142.059 57.293 143.049 59.6429 145.929 58.7629Z" fill="url(#paint6_linear_17_3982)"/>
<path d="M144.729 46.4029C142.449 45.0629 139.199 46.3628 137.469 49.3128C136.149 49.1528 133.619 47.9129 131.709 42.9229C131.709 42.9229 115.419 41.9928 118.589 50.5628C119.849 53.9828 121.629 58.4229 123.429 63.0129C124.829 66.5929 127.649 71.4929 130.929 72.4529C133.529 73.2129 140.179 71.5129 141.989 68.2829C144.559 63.7029 142.129 57.4328 142.129 57.4328C143.459 56.8028 144.809 55.7229 145.729 54.1629C147.449 51.2129 147.009 47.7429 144.729 46.4029Z" fill="#FFAF99"/>
<path d="M131.049 57.2429C131.789 57.8229 133.229 57.6929 134.269 56.9529C135.309 56.2129 135.559 55.1429 134.819 54.5629C134.079 53.9829 132.639 54.1129 131.599 54.8529C130.559 55.5929 130.309 56.6629 131.049 57.2429Z" fill="#EA7D6A"/>
<path d="M129.609 51.2428C129.339 51.3528 129.199 51.6628 129.309 51.9328L129.789 53.1529C129.899 53.4229 130.209 53.5628 130.479 53.4528C130.749 53.3428 130.889 53.0428 130.779 52.7628L130.299 51.5429C130.189 51.2729 129.879 51.1428 129.609 51.2428Z" fill="#93372B"/>
<path d="M121.779 54.4729C121.509 54.5829 121.369 54.8929 121.479 55.1629L121.959 56.3828C122.069 56.6528 122.369 56.7928 122.649 56.6828C122.919 56.5728 123.059 56.2628 122.949 55.9928L122.469 54.7729C122.359 54.5029 122.049 54.3629 121.779 54.4729Z" fill="#93372B"/>
<path d="M129.599 64.9129C128.479 64.9129 127.189 63.4929 127.019 63.2929C126.899 63.1629 126.909 62.9528 127.049 62.8328C127.179 62.7128 127.389 62.7229 127.509 62.8629C128.029 63.4529 129.299 64.5628 129.869 64.1828C130.549 63.7328 130.559 62.2428 130.509 61.7028C130.489 61.5228 130.619 61.3629 130.799 61.3529C130.969 61.3329 131.129 61.4628 131.149 61.6428C131.169 61.8828 131.339 63.9829 130.219 64.7229C130.019 64.8629 129.809 64.9129 129.599 64.9129Z" fill="#C65347"/>
<path d="M132.479 74.4129L140.079 77.5329L151.019 66.2329L159.169 73.3429L150.079 90.2629C149.469 91.4929 147.819 91.7129 146.899 90.6929L140.409 83.4629L133.859 90.2429C133.119 91.0129 131.819 90.4529 131.859 89.3929L132.479 74.4129Z" fill="#FBFADC"/>
<path d="M145.719 54.1628C147.449 51.2228 147.009 47.7428 144.729 46.4128C142.449 45.0728 139.199 46.3728 137.469 49.3228C136.849 49.3328 136.049 49.0128 135.159 48.2728C136.409 50.9128 138.409 55.1528 139.169 57.0228C140.219 59.5928 141.479 63.5128 138.909 68.1028C137.589 70.4728 133.669 72.0028 130.639 72.3628C133.509 73.2228 140.159 71.5228 141.969 68.2928C144.539 63.7128 142.109 57.4428 142.109 57.4428C143.459 56.8028 144.799 55.7228 145.719 54.1628Z" fill="url(#paint7_linear_17_3982)"/>
<path d="M144.289 53.443C145.859 51.683 146.099 49.3229 144.819 48.1829C143.539 47.0329 141.219 47.533 139.649 49.293C138.079 51.053 137.839 53.4129 139.119 54.5529C140.399 55.7029 142.719 55.203 144.289 53.443Z" fill="#DD6050"/>
<path d="M125.489 61.0028C123.699 61.0028 122.139 60.8128 122.009 60.1728C121.869 59.5128 122.339 58.8228 122.999 57.8628C123.469 57.1728 124.059 56.3128 124.509 55.2828C124.629 55.0028 124.269 53.8628 123.839 52.9828C123.759 52.8228 123.829 52.6328 123.989 52.5528C124.149 52.4728 124.339 52.5428 124.419 52.7028C124.659 53.1928 125.399 54.8528 125.089 55.5428C124.609 56.6228 124.009 57.5128 123.519 58.2228C122.999 58.9828 122.549 59.6428 122.629 60.0428C122.879 60.3128 125.199 60.4428 127.689 60.2828C127.859 60.2828 128.019 60.4028 128.029 60.5828C128.039 60.7628 127.909 60.9128 127.729 60.9228C127.009 60.9728 126.229 61.0028 125.489 61.0028Z" fill="#C65347"/>
<path d="M136.359 133.843C136.179 133.843 136.039 133.693 136.039 133.523C136.039 111.153 140.059 83.6929 140.099 83.4129L139.759 77.5429C139.749 77.3629 139.889 77.2129 140.059 77.2029C140.239 77.2129 140.389 77.3329 140.399 77.5029L140.729 83.4329C140.689 83.7729 136.679 111.183 136.679 133.513C136.679 133.703 136.539 133.843 136.359 133.843Z" fill="#0E2371"/>
<path d="M183.939 164.303C183.759 164.303 183.619 164.153 183.619 163.983C183.619 138.333 179.329 96.6529 179.289 96.2329C179.269 96.0529 179.399 95.8929 179.579 95.8729C179.749 95.8529 179.919 95.9829 179.939 96.1629C179.979 96.5829 184.269 138.293 184.269 163.973C184.259 164.163 184.119 164.303 183.939 164.303Z" fill="#0E2371"/>
<path d="M206.689 145.193C206.539 145.193 206.399 145.083 206.369 144.923C202.679 123.893 204.179 104.313 204.199 104.113C204.209 103.933 204.379 103.803 204.549 103.813C204.729 103.823 204.859 103.983 204.849 104.163C204.829 104.363 203.339 123.863 207.009 144.803C207.039 144.983 206.919 145.143 206.749 145.183C206.729 145.193 206.709 145.193 206.689 145.193Z" fill="#0E2371"/>
<path d="M131.769 100.843C131.769 102.193 130.939 103.293 129.919 103.293C128.899 103.293 128.069 102.193 128.069 100.843C128.069 99.4928 128.899 98.3928 129.919 98.3928C130.939 98.3928 131.769 99.4928 131.769 100.843Z" fill="#FFB850"/>
<path d="M180.419 51.3728L184.439 47.3529C184.879 46.9129 184.879 46.1929 184.439 45.7529C183.999 45.3129 183.279 45.3129 182.829 45.7529L178.809 49.7729L174.789 45.7529C174.349 45.3129 173.629 45.3129 173.179 45.7529C172.739 46.1929 172.739 46.9129 173.179 47.3529L177.199 51.3728L173.179 55.3929C172.739 55.8329 172.739 56.5529 173.179 57.0029C173.399 57.2229 173.689 57.3329 173.979 57.3329C174.269 57.3329 174.559 57.2229 174.779 57.0029L178.799 52.9829L182.819 57.0029C183.039 57.2229 183.329 57.3329 183.619 57.3329C183.909 57.3329 184.199 57.2229 184.419 57.0029C184.859 56.5629 184.859 55.8429 184.419 55.3929L180.419 51.3728Z" fill="#FF7C48"/>
<path d="M258.599 102.963L264.419 93.8229L270.239 102.963H258.599Z" fill="#29C7CC"/>
<path d="M264.698 181.028L241.346 172.3L232.618 195.652L255.97 204.38L264.698 181.028Z" fill="#FF7C48"/>
<path d="M255.799 179.893C255.079 181.803 252.959 182.773 251.039 182.063C249.129 181.343 248.159 179.223 248.869 177.303C249.579 175.393 251.709 174.423 253.629 175.133C255.549 175.853 256.519 177.983 255.799 179.893Z" fill="#1A1A1A"/>
<path d="M254.909 195.603C253.899 195.603 252.879 195.203 252.039 194.473C251.449 193.953 251.009 193.323 250.739 192.653C248.249 192.783 245.749 191.783 244.019 189.993C243.749 190.283 243.439 190.543 243.069 190.763C242.459 191.133 241.509 191.153 240.629 190.833C239.739 190.503 239.079 189.873 238.829 189.103C238.769 188.933 238.869 188.753 239.039 188.693C239.209 188.643 239.389 188.733 239.449 188.903C239.639 189.483 240.149 189.963 240.859 190.223C241.549 190.483 242.309 190.473 242.739 190.213C243.069 190.013 243.349 189.773 243.589 189.513C243.489 189.393 243.399 189.273 243.299 189.143C242.579 188.173 242.329 187.273 242.539 186.473C242.689 185.913 243.189 185.413 243.789 185.243C244.269 185.103 244.739 185.203 245.069 185.513C245.569 185.983 245.659 186.773 245.319 187.743C245.139 188.273 244.859 188.903 244.429 189.493C245.999 191.143 248.259 192.093 250.539 192.013C250.479 191.743 250.459 191.483 250.459 191.213C250.469 190.573 250.619 189.673 251.239 189.023C251.799 188.433 252.839 188.143 253.599 188.673C253.959 188.923 254.199 189.323 254.259 189.803C254.339 190.373 254.159 191.013 253.799 191.453C253.299 192.063 252.489 192.443 251.399 192.593C251.629 193.103 251.989 193.583 252.449 193.993C253.299 194.743 254.349 195.073 255.349 194.933C255.519 194.903 255.689 195.033 255.719 195.203C255.749 195.383 255.619 195.543 255.449 195.573C255.279 195.583 255.089 195.603 254.909 195.603ZM252.709 189.043C252.339 189.043 251.959 189.223 251.719 189.473C251.239 189.973 251.129 190.703 251.119 191.233C251.119 191.473 251.139 191.723 251.199 191.973C252.199 191.853 252.909 191.543 253.319 191.043C253.569 190.743 253.689 190.303 253.639 189.903C253.609 189.693 253.519 189.403 253.249 189.213C253.089 189.093 252.899 189.043 252.709 189.043ZM244.219 185.823C243.599 185.963 243.269 186.283 243.169 186.633C243.009 187.233 243.229 187.953 243.819 188.753C244.329 188.493 244.559 187.963 244.709 187.523C244.829 187.193 245.049 186.373 244.629 185.973C244.509 185.853 244.359 185.823 244.219 185.823Z" fill="#FBFADC"/>
<path d="M28.7344 129.435L6.25732 140.217L17.0395 162.694L39.5166 151.912L28.7344 129.435Z" fill="#FFB850"/>
<path d="M21.7393 134.733C22.6193 136.573 21.8494 138.783 20.0094 139.663C18.1694 140.543 15.9592 139.773 15.0792 137.933C14.1992 136.093 14.9692 133.883 16.8092 133.003C18.6492 132.113 20.8593 132.893 21.7393 134.733Z" fill="#FF7C48"/>
<path d="M32.8491 150.793C32.7391 150.773 14.3091 144.293 14.3091 144.293C14.1391 144.233 14.0489 144.053 14.1089 143.883C14.1689 143.713 14.3491 143.623 14.5191 143.683L32.9492 150.163C33.1192 150.223 33.209 150.403 33.149 150.573C33.109 150.713 32.9891 150.793 32.8491 150.793Z" fill="#FBFADC"/>
<path d="M20.3987 156.773C20.1187 156.693 20.0387 156.513 20.0887 156.343L26.5686 137.913C26.6286 137.743 26.8088 137.653 26.9788 137.713C27.1488 137.773 27.239 137.953 27.179 138.123L20.699 156.553C20.659 156.683 20.5287 156.773 20.3987 156.773Z" fill="#FBFADC"/>
<path d="M96.0191 32.8529C95.7091 32.7829 95.5793 32.5629 95.6393 32.3529C96.0793 30.7929 96.6091 28.9529 97.2291 27.0829C97.2991 26.8729 97.5193 26.7629 97.7193 26.8329C97.9293 26.9029 98.0393 27.1229 97.9693 27.3229C97.3593 29.1829 96.8293 31.0128 96.3893 32.5628C96.3493 32.7428 96.1891 32.8529 96.0191 32.8529ZM155.709 24.5229C155.509 24.5229 155.339 24.3729 155.319 24.1629C155.299 23.9529 155.459 23.7529 155.669 23.7329C156.519 23.6529 157.249 23.2328 157.619 22.6228C157.869 22.1928 157.989 21.6629 157.989 20.9529C157.989 20.8429 157.989 20.7229 157.979 20.6129C157.969 20.4529 157.959 20.2929 157.949 20.1329C157.929 19.9129 158.089 19.7229 158.299 19.7129C158.509 19.6929 158.709 19.8528 158.719 20.0628C158.739 20.2328 158.749 20.4029 158.759 20.5729C158.769 20.7029 158.769 20.8229 158.769 20.9529C158.769 21.7929 158.609 22.4729 158.289 23.0129C157.799 23.8529 156.849 24.4029 155.739 24.5129C155.729 24.5229 155.719 24.5229 155.709 24.5229ZM99.5489 22.4529C99.1989 22.3329 99.0991 22.1029 99.1891 21.9029C99.9791 20.0929 100.819 18.4829 101.749 16.9829C101.859 16.8029 102.109 16.7429 102.289 16.8529C102.469 16.9629 102.529 17.2129 102.419 17.3929C101.509 18.8629 100.689 20.4329 99.9093 22.2129C99.8393 22.3729 99.6989 22.4529 99.5489 22.4529ZM151.859 21.3229C151.679 21.3229 151.519 21.1929 151.479 21.0129C151.419 20.7029 151.379 20.3929 151.369 20.0829C151.369 18.5929 151.779 17.1929 152.619 15.5929C152.769 15.3029 153.009 15.2329 153.199 15.3329C153.389 15.4329 153.469 15.6729 153.369 15.8629C152.529 17.4429 152.149 18.7229 152.149 19.8929C152.159 20.3329 152.189 20.5929 152.249 20.8629C152.289 21.0729 152.159 21.2829 151.949 21.3229C151.909 21.3229 151.889 21.3229 151.859 21.3229ZM205.399 20.2428C205.239 20.2428 205.089 20.1429 205.029 19.9829C204.729 19.1429 204.239 18.2029 203.559 17.2129C203.439 17.0329 203.489 16.7929 203.659 16.6729C203.839 16.5529 204.079 16.6029 204.199 16.7729C204.919 17.8329 205.429 18.8029 205.759 19.7229C205.829 19.9229 205.729 20.1529 205.519 20.2229C205.489 20.2329 205.449 20.2428 205.399 20.2428ZM156.799 15.2429C156.649 15.2429 156.509 15.1629 156.449 15.0129C155.699 13.4129 154.739 11.8729 153.589 10.4529C153.449 10.2829 153.479 10.0429 153.649 9.90287C153.819 9.76287 154.059 9.79287 154.199 9.96287C155.389 11.4329 156.389 13.0229 157.159 14.6829C157.249 14.8829 157.169 15.1129 156.969 15.2029C156.919 15.2329 156.859 15.2429 156.799 15.2429ZM105.369 13.2029C104.949 12.9629 104.929 12.7129 105.079 12.5529C106.289 11.2029 107.639 9.91286 109.099 8.73286C109.269 8.59286 109.509 8.62286 109.649 8.79286C109.789 8.96286 109.759 9.20287 109.589 9.34287C108.169 10.5029 106.839 11.7629 105.659 13.0829C105.589 13.1629 105.479 13.2029 105.369 13.2029ZM200.399 13.1429C200.299 13.1429 200.189 13.1029 200.109 13.0129C199.739 12.6129 199.379 12.2329 199.039 11.8729L198.379 11.1729C197.729 10.4729 197.009 9.80287 196.259 9.18287C196.089 9.04287 196.069 8.80285 196.209 8.63285C196.349 8.46285 196.589 8.44286 196.759 8.57285C197.549 9.21285 198.279 9.90285 198.959 10.6329L199.619 11.3329C199.969 11.7029 200.329 12.0829 200.699 12.4829C200.849 12.6429 200.839 12.8929 200.679 13.0329C200.589 13.1029 200.499 13.1429 200.399 13.1429ZM156.199 11.6229C155.779 11.3729 155.769 11.1229 155.909 10.9629C157.149 9.63287 158.579 8.42286 160.159 7.36286C160.339 7.24286 160.579 7.29288 160.699 7.47288C160.819 7.65288 160.769 7.89286 160.589 8.01286C159.059 9.03286 157.679 10.2129 156.479 11.4929C156.409 11.5829 156.309 11.6229 156.199 11.6229ZM149.999 6.74287C148.349 5.54287 146.819 4.56288 145.199 3.75288C145.009 3.65288 144.929 3.42286 145.029 3.23286C145.129 3.04286 145.359 2.96288 145.559 3.06288C147.229 3.90288 148.809 4.90287 150.249 6.05287C150.419 6.18287 150.449 6.43285 150.309 6.60285C150.229 6.69285 150.119 6.74287 149.999 6.74287ZM191.899 6.30287C190.149 5.47287 188.449 4.82285 186.679 4.32285C186.469 4.26285 186.349 4.05287 186.409 3.84287C186.469 3.63287 186.679 3.51285 186.889 3.57285C188.719 4.08285 190.459 4.76285 192.079 5.57285C192.269 5.67285 192.349 5.90285 192.249 6.10285C192.179 6.22285 192.039 6.30287 191.899 6.30287ZM113.849 6.28288C113.719 6.28288 113.589 6.21287 113.509 6.09287C113.399 5.90287 113.459 5.66287 113.649 5.55287C115.229 4.61287 116.899 3.77287 118.599 3.05287C118.799 2.97287 119.029 3.06286 119.109 3.26286C119.189 3.46286 119.099 3.69287 118.899 3.77287C117.229 4.47287 115.599 5.30288 114.049 6.22288C113.989 6.26288 113.919 6.28288 113.849 6.28288ZM165.229 5.51286C165.079 5.51286 164.929 5.42287 164.869 5.27287C164.789 5.07287 164.879 4.84286 165.079 4.76286C166.759 4.07286 168.539 3.52287 170.389 3.12287C170.599 3.07287 170.809 3.21286 170.859 3.42286C170.909 3.63286 170.769 3.84286 170.559 3.89286C168.759 4.28286 167.019 4.82287 165.389 5.49287C165.329 5.50287 165.279 5.51286 165.229 5.51286ZM181.389 3.30287C179.559 3.11287 177.729 3.06287 175.919 3.15287C175.709 3.18287 175.519 3.00288 175.509 2.78288C175.499 2.56288 175.659 2.38287 175.879 2.37287C177.729 2.27287 179.599 2.32287 181.429 2.52287C181.639 2.54287 181.799 2.74286 181.779 2.95286C181.759 3.15286 181.589 3.30287 181.389 3.30287ZM123.949 2.05287C123.779 2.05287 123.619 1.93286 123.569 1.76286C123.519 1.55286 123.639 1.34288 123.849 1.28288C125.659 0.812877 127.499 0.482856 129.309 0.292856C129.519 0.262856 129.719 0.422862 129.739 0.642862C129.759 0.852862 129.599 1.05285 129.389 1.07285C127.619 1.25285 125.819 1.57286 124.049 2.04286C124.009 2.04286 123.979 2.05287 123.949 2.05287ZM140.249 1.86286C138.439 1.39286 136.639 1.10288 134.809 0.972879C134.589 0.962879 134.429 0.772866 134.449 0.552866C134.459 0.332866 134.669 0.17285 134.869 0.19285C136.749 0.32285 138.599 0.622874 140.359 1.09287C140.569 1.15287 140.689 1.36285 140.639 1.57285C140.579 1.74285 140.419 1.86286 140.249 1.86286Z" fill="#1A1A1A"/>
<path d="M194.309 4.86287C194.219 7.46287 192.039 9.49287 189.449 9.40287C186.859 9.31287 184.819 7.13286 184.909 4.54286C184.999 1.94286 187.179 -0.0871194 189.769 0.00288059C192.369 0.0928806 194.399 2.26287 194.309 4.86287Z" fill="#FFB850"/>
<path d="M92.9092 117.543C92.7392 117.543 92.5989 117.413 92.5889 117.243L91.9092 108.423C91.8992 108.243 92.029 108.093 92.209 108.073C92.389 108.063 92.5391 108.193 92.5591 108.373L93.2393 117.193C93.2493 117.373 93.119 117.523 92.939 117.543C92.929 117.543 92.9192 117.543 92.9092 117.543Z" fill="#0E2371"/>
<path d="M120.579 6.69282C120.489 9.29282 118.309 11.3228 115.719 11.2328C113.119 11.1428 111.089 8.96285 111.179 6.37285C111.269 3.77285 113.449 1.74284 116.049 1.83284C118.639 1.91284 120.669 4.09282 120.579 6.69282Z" fill="#29C7CC"/>
<path d="M209.159 164.133C229.829 164.833 238.249 153.983 241.329 141.753C238.829 140.873 236.139 140.373 233.339 140.373C220.129 140.373 209.389 150.973 209.159 164.133Z" fill="#FFB850"/>
<g style="mix-blend-mode:overlay" opacity="0.5">
<path d="M241.699 112.823C240.689 105.943 239.189 99.3529 237.709 93.8029C240.069 110.913 241.079 140.143 222.669 149.153C203.539 158.523 182.649 132.443 182.649 132.443L183.929 163.983C183.929 163.983 189.169 167.043 196.879 170.043H207.309L206.429 163.983C248.639 167.293 243.549 125.443 241.699 112.823Z" fill="url(#paint8_linear_17_3982)"/>
</g>
<path d="M204.779 231.923H59.3091C53.3391 231.923 48.4893 227.363 48.4893 221.763V122.093C48.4893 116.493 53.3391 111.933 59.3091 111.933H204.779C210.749 111.933 215.599 116.493 215.599 122.093V221.763C215.599 227.363 210.739 231.923 204.779 231.923Z" fill="#1A1A1A"/>
<path d="M48.479 128.333H215.599V122.083C215.599 116.483 210.749 111.923 204.779 111.923H59.3091C53.3391 111.923 48.4893 116.483 48.4893 122.083V128.333H48.479Z" fill="#29C7CC"/>
<path d="M64.7793 120.983C64.7793 123.463 62.7691 125.473 60.2891 125.473C57.8091 125.473 55.7988 123.463 55.7988 120.983C55.7988 118.503 57.8091 116.493 60.2891 116.493C62.7691 116.493 64.7793 118.503 64.7793 120.983Z" fill="#FF7C48"/>
<path d="M77.439 120.983C77.439 123.463 75.4292 125.473 72.9492 125.473C70.4692 125.473 68.459 123.463 68.459 120.983C68.459 118.503 70.4692 116.493 72.9492 116.493C75.4292 116.493 77.439 118.503 77.439 120.983Z" fill="#FFB850"/>
<path d="M194.429 180.743H169.129V182.503H194.429V180.743Z" fill="#FFB850"/>
<path d="M194.429 186.753H169.129V188.513H194.429V186.753Z" fill="#FFB850"/>
<path d="M194.429 195.303H169.129V197.063H194.429V195.303Z" fill="#FFB850"/>
<path d="M194.429 201.323H169.129V203.083H194.429V201.323Z" fill="#FFB850"/>
<path d="M144.399 139.493H119.099V141.253H144.399V139.493Z" fill="#EDE1B0"/>
<path d="M144.399 145.503H119.099V147.263H144.399V145.503Z" fill="#EDE1B0"/>
<path d="M144.399 154.053H119.099V155.813H144.399V154.053Z" fill="#EDE1B0"/>
<path d="M144.399 160.063H119.099V161.823H144.399V160.063Z" fill="#EDE1B0"/>
<path d="M95.6489 171.923H61.1992C60.6792 171.923 60.269 171.503 60.269 170.993V136.533C60.269 136.013 60.6892 135.603 61.1992 135.603H95.6489C96.1689 135.603 96.5791 136.023 96.5791 136.533V170.983C96.5791 171.503 96.1589 171.923 95.6489 171.923Z" fill="url(#paint9_linear_17_3982)"/>
<path d="M90.6994 165.363L79.5793 141.033C79.3593 140.553 78.869 140.233 78.339 140.233C77.809 140.233 77.3193 140.543 77.0993 141.033L69.4992 157.653L65.9792 165.363C65.6692 166.043 65.9691 166.853 66.6491 167.163C66.8291 167.243 67.0292 167.283 67.2092 167.283C67.7292 167.283 68.2194 166.983 68.4494 166.483L71.6193 159.533H85.0295L88.2092 166.483C88.5192 167.163 89.3295 167.463 90.0095 167.153C90.7095 166.853 91.0094 166.043 90.6994 165.363ZM72.8791 156.823L78.339 144.873L83.799 156.823H72.8791Z" fill="#FBFADC"/>
<path d="M157.839 204.603H133.759C133.399 204.603 133.109 204.313 133.109 203.953V179.873C133.109 179.513 133.399 179.223 133.759 179.223H157.839C158.199 179.223 158.489 179.513 158.489 179.873V203.953C158.489 204.313 158.199 204.603 157.839 204.603Z" fill="#29C7CC"/>
<path d="M203.549 163.353H179.469C179.109 163.353 178.819 163.063 178.819 162.703V138.623C178.819 138.263 179.109 137.973 179.469 137.973H203.549C203.909 137.973 204.199 138.263 204.199 138.623V162.703C204.199 163.063 203.909 163.353 203.549 163.353Z" fill="#FBFADC"/>
<path d="M196.399 155.823H186.609C186.459 155.823 186.339 155.703 186.339 155.553V145.763C186.339 145.613 186.459 145.493 186.609 145.493H196.399C196.549 145.493 196.669 145.613 196.669 145.763V155.553C196.669 155.703 196.549 155.823 196.399 155.823Z" fill="#3656B3"/>
<path d="M121.239 212.513H24.7891C24.3991 212.513 24.0791 212.193 24.0791 211.803V186.183C24.0791 185.793 24.3991 185.473 24.7891 185.473H121.239C121.629 185.473 121.949 185.793 121.949 186.183V211.803C121.949 212.193 121.629 212.513 121.239 212.513Z" fill="#3656B3"/>
<path d="M46.8291 198.983C46.8291 203.763 42.9489 207.643 38.1689 207.643C33.3889 207.643 29.5093 203.763 29.5093 198.983C29.5093 194.203 33.3889 190.323 38.1689 190.323C42.9489 190.323 46.8291 194.203 46.8291 198.983Z" fill="#FBFADC"/>
<path d="M115.929 193.493H53.1289V196.493H115.929V193.493Z" fill="#FFB850"/>
<path d="M115.929 201.473H53.1289V204.473H115.929V201.473Z" fill="#FFB850"/>
<path d="M151.979 191.913C151.979 195.323 149.209 198.093 145.799 198.093C142.389 198.093 139.619 195.323 139.619 191.913C139.619 188.503 142.389 185.733 145.799 185.733C149.209 185.733 151.979 188.493 151.979 191.913Z" fill="#FF7C48"/>
<defs>
<linearGradient id="paint0_linear_17_3982" x1="133.104" y1="223.371" x2="133.104" y2="7.21121" gradientUnits="userSpaceOnUse">
<stop stop-color="#F7FFFF"/>
<stop offset="1" stop-color="#B9DAFF"/>
</linearGradient>
<linearGradient id="paint1_linear_17_3982" x1="95.8623" y1="79.9333" x2="95.8623" y2="125.44" gradientUnits="userSpaceOnUse">
<stop offset="0.00558659" stop-color="#808080"/>
<stop offset="1"/>
</linearGradient>
<linearGradient id="paint2_linear_17_3982" x1="174.778" y1="73.2669" x2="174.778" y2="170.044" gradientUnits="userSpaceOnUse">
<stop stop-color="#3380CC"/>
<stop offset="1" stop-color="#364BB3"/>
</linearGradient>
<linearGradient id="paint3_linear_17_3982" x1="65.2621" y1="52.2518" x2="65.2621" y2="81.4075" gradientUnits="userSpaceOnUse">
<stop offset="0.1941" stop-color="#FF6A48"/>
<stop offset="1" stop-color="#FF5533"/>
</linearGradient>
<linearGradient id="paint4_linear_17_3982" x1="67.6041" y1="63.7408" x2="67.8937" y2="121.424" gradientUnits="userSpaceOnUse">
<stop stop-color="#FFAF99"/>
<stop offset="0.9559" stop-color="#ED6F5F"/>
</linearGradient>
<linearGradient id="paint5_linear_17_3982" x1="233.056" y1="53.0696" x2="232.766" y2="110.754" gradientUnits="userSpaceOnUse">
<stop stop-color="#FFAF99"/>
<stop offset="0.9559" stop-color="#ED6F5F"/>
</linearGradient>
<linearGradient id="paint6_linear_17_3982" x1="147.293" y1="83.3847" x2="138.387" y2="60.6108" gradientUnits="userSpaceOnUse">
<stop offset="0.00558659" stop-color="#FFAF99"/>
<stop offset="0.5803" stop-color="#ED6F5F"/>
</linearGradient>
<linearGradient id="paint7_linear_17_3982" x1="130.65" y1="59.2248" x2="146.777" y2="59.2248" gradientUnits="userSpaceOnUse">
<stop offset="0.00558659" stop-color="#FFAF99"/>
<stop offset="1" stop-color="#ED6F5F"/>
</linearGradient>
<linearGradient id="paint8_linear_17_3982" x1="212.785" y1="93.7969" x2="212.785" y2="170.044" gradientUnits="userSpaceOnUse">
<stop offset="0.00558659" stop-color="#808080"/>
<stop offset="1"/>
</linearGradient>
<linearGradient id="paint9_linear_17_3982" x1="78.417" y1="135.6" x2="78.417" y2="171.924" gradientUnits="userSpaceOnUse">
<stop offset="0.1941" stop-color="#FF6A48"/>
<stop offset="1" stop-color="#FF5533"/>
</linearGradient>
</defs>
</svg>
