<svg xmlns="http://www.w3.org/2000/svg" width="497" height="255" viewBox="0 0 497 255">
  <g id="Group_1272" data-name="Group 1272" transform="translate(-688 -3740)">
    <rect id="Rectangle_129" data-name="Rectangle 129" width="497" height="255" rx="8" transform="translate(688 3740)" fill="#e7f6fe"/>
    <path id="Path_1562" data-name="Path 1562" d="M2001.06,1903.841h0c-2.19,0-3.983.967-3.983,2.148v24.029c0,1.181,1.792,2.148,3.983,2.148h0c2.19,0,3.983-.967,3.983-2.148v-24.029C2005.043,1904.807,2003.251,1903.841,2001.06,1903.841Z" transform="translate(-1083.199 2062.662)" fill="#282f39"/>
    <path id="Path_1563" data-name="Path 1563" d="M1994.986,1904.865h-7.207a3.5,3.5,0,0,1-3.485-3.485h0a3.5,3.5,0,0,1,3.485-3.485h7.207a3.5,3.5,0,0,1,3.485,3.485h0A3.5,3.5,0,0,1,1994.986,1904.865Z" transform="translate(-1073.521 2067.164)" fill="#282f39"/>
    <path id="Path_1572" data-name="Path 1572" d="M2177.445,1532.614c0-7.416-6.956-11.207-16.76-11.159h-63.558c-7.476,0-9.167,6.175-9.5,11.159l-1.327,110.24h86.343l.05-9.158Z" transform="translate(-1150.749 2352.146)" fill="#282f39"/>
    <path id="Path_1573" data-name="Path 1573" d="M2141.545,1543.726c-.329-4.958-4.193-8.359-9.5-8.359h-53.455c-5.3,0-9.167,3.4-9.5,8.359l-7.275,109.661h75.312Z" transform="translate(-1132.215 2341.613)" fill="#282f39"/>
    <path id="Path_1575" data-name="Path 1575" d="M2173.42,1698.22h-57.634a.568.568,0,0,0-.5.548h0a.46.46,0,0,0,.408.548h57.634a.568.568,0,0,0,.5-.548h0A.461.461,0,0,0,2173.42,1698.22Z" transform="translate(-1172.685 2218.326)" fill="#282f39"/>
    <path id="Path_1576" data-name="Path 1576" d="M2173.42,1893.383h-57.634a.567.567,0,0,0-.5.548h0a.461.461,0,0,0,.408.548h57.634a.568.568,0,0,0,.5-.548h0A.461.461,0,0,0,2173.42,1893.383Z" transform="translate(-1172.685 2070.58)" fill="#282f39"/>
    <path id="Path_1578" data-name="Path 1578" d="M1823.264,1569.339c2.58,2.4,11.454,1.067,13.937-1.069,2.57-2.21,18.241-32.286,21.617-39.219s6.865-13.684,7.947-17.972c1.74-6.9-4.271-18.669-10.552-21.7a16.8,16.8,0,0,0-7.753,4.191c-4.122,3.918-6.558,9.27-8.629,14.566-2.54,6.494-13.706,36.085-20.181,49.536C1817.713,1561.694,1819.906,1566.214,1823.264,1569.339Z" transform="translate(-948.329 2376.429)" fill="#808cbc"/>
    <path id="Path_1579" data-name="Path 1579" d="M2075.8,1383.368c-2.038-.891-5.8-14.419-6.187-17.349h-17.675c-.388,2.931-4.149,16.458-6.187,17.349-10.066,4.4,17.413,46.839,17.413,46.839S2086,1387.83,2075.8,1383.368Z" transform="translate(-1118.366 2469.818)" fill="#e8a185"/>
    <path id="Path_1580" data-name="Path 1580" d="M2083.965,1383.368c-2.038-.891-5.8-14.419-6.187-17.349H2060.1a74.041,74.041,0,0,1-2.42,9.269c5.26,4.8,14.864,4.751,20.079-1.065,1.668,4.326,3.1,10.026,1.237,13.37-4.891,8.761-15.217,10.221-24.677,10.833,5.346,13.772,17.007,31.78,17.007,31.78S2094.167,1387.83,2083.965,1383.368Z" transform="translate(-1126.536 2469.818)" fill="#e8a185"/>
    <path id="Path_1581" data-name="Path 1581" d="M1965.579,1435.44c-.6,1.682-3.649,4.25-2.246,5.357,10.072,7.96,22.7,7.866,34.475,0,1.486-.993-2.054-3.861-2.658-5.543,0,0,33.975,13.746,35.5,15.273s-9.239,37.89-9.239,37.89-4.388,41.1-4.388,44.428-1.257,42.6-1.257,42.6a303.976,303.976,0,0,1-35.206,1.976,368.982,368.982,0,0,1-37.992-2.108s1.637-43.93,1.637-45.932c0-6.52-6.9-48.174-6.9-48.174s1.071-23.127,1.071-26.026C1938.381,1447.856,1965.579,1435.44,1965.579,1435.44Z" transform="translate(-1037.953 2417.403)" fill="#c0ddfd"/>
    <path id="Path_1582" data-name="Path 1582" d="M2111.547,1498.116c.068.029.037,12.308.011,16.369q-.3,45.218-.655,90.436c-.033,4.061-.179,16.339-.248,16.366-.068-.03-.037-12.308-.01-16.368q.3-45.218.655-90.436C2111.332,1510.422,2111.479,1498.144,2111.547,1498.116Z" transform="translate(-1169.15 2369.814)" fill="#b1cff0"/>
    <path id="Path_1583" data-name="Path 1583" d="M2118.289,1527.521a1.525,1.525,0,1,0,1.525-1.525A1.525,1.525,0,0,0,2118.289,1527.521Z" transform="translate(-1174.962 2348.708)" fill="#282f39"/>
    <path id="Path_1584" data-name="Path 1584" d="M2118.289,1616.029a1.525,1.525,0,1,0,1.525-1.525A1.525,1.525,0,0,0,2118.289,1616.029Z" transform="translate(-1174.962 2281.703)" fill="#282f39"/>
    <path id="Path_1585" data-name="Path 1585" d="M2118.289,1704.536a1.525,1.525,0,1,0,1.525-1.525A1.525,1.525,0,0,0,2118.289,1704.536Z" transform="translate(-1174.962 2214.7)" fill="#282f39"/>
    <path id="Path_1586" data-name="Path 1586" d="M2118.289,1793.043a1.525,1.525,0,1,0,1.525-1.525A1.525,1.525,0,0,0,2118.289,1793.043Z" transform="translate(-1174.962 2147.695)" fill="#282f39"/>
    <path id="Path_1587" data-name="Path 1587" d="M2118.289,1881.55a1.525,1.525,0,1,0,1.525-1.525A1.525,1.525,0,0,0,2118.289,1881.55Z" transform="translate(-1174.962 2080.692)" fill="#282f39"/>
    <path id="Path_1589" data-name="Path 1589" d="M1962,1435.44c-.6,1.682-2.246,5.357-2.246,5.357s10.194,70.81,16.082,70.8,18.393-70.8,18.393-70.8-2.054-3.861-2.659-5.543c0,0,33.975,13.746,35.5,15.273s-9.239,37.89-9.239,37.89-4.388,41.1-4.388,44.428-1.257,42.6-1.257,42.6a303.977,303.977,0,0,1-35.206,1.976,368.982,368.982,0,0,1-37.992-2.108s1.637-43.93,1.637-45.932c0-6.52-8.044-49.056-8.044-49.056s1.146-21.929,1.146-24.829C1933.731,1448.172,1962,1435.44,1962,1435.44Z" transform="translate(-1034.376 2417.403)" fill="#808cbc"/>
    <circle id="Ellipse_80" data-name="Ellipse 80" cx="6.404" cy="6.404" r="6.404" transform="translate(914.965 3817.455) rotate(-45)" fill="#e8a185"/>
    <ellipse id="Ellipse_81" data-name="Ellipse 81" cx="6.404" cy="6.404" rx="6.404" ry="6.404" transform="translate(954.976 3810.902)" fill="#e8a185"/>
    <path id="Path_1594" data-name="Path 1594" d="M2072.06,1193.829s-6.587,23.527-19.916,23.58c-13.335-.031-19.92-23.58-19.92-23.58,1.672-9.914-1.672-19.827,0-29.74.1.045,10.42-9.112,19.707-9.187,9.272.077,19.949,9.237,20.06,9.187C2073.662,1174,2070.388,1183.915,2072.06,1193.829Z" transform="translate(-1109.442 2629.643)" fill="#e8a185"/>
    <path id="Path_1612" data-name="Path 1612" d="M2170.771,1162a64.338,64.338,0,0,0,2.385-8.2c1.1-6.6.346-14.049-4.292-18.878-1.437-1.5-3.783-2.7-5.5-1.543a14.9,14.9,0,0,0-4.182-6.42c-4.651-4.178,6.678,17.923,6.678,20.562,0,8.674.428,8.91,1.521,25.891C2168.619,1173,2169.684,1165.571,2170.771,1162Z" transform="translate(-1205.068 2651.191)" fill="#353f49"/>
    <path id="Path_1613" data-name="Path 1613" d="M2016.081,1202.088c-.844-2.773-.786-5.83-1.261-8.689-1.1-6.6-1.008-10.249,3.674-14.447,1.545-1.386,1.758,6.172,1.758,8.811,0,8.761-.776,25.74-.776,25.74C2018.233,1213.089,2017.168,1205.658,2016.081,1202.088Z" transform="translate(-1096.193 2611.563)" fill="#353f49"/>
    <path id="Path_1614" data-name="Path 1614" d="M2058.232,1121.721a16.567,16.567,0,0,1,3.464,3.75,11.71,11.71,0,0,1,2.293,6.068c.153,4.24-2.953,7.735-6.032,10.37-4.711,4.031-10.006,7.432-15.845,8.968-5.373,1.413-12.878,1.04-17.824-1.571-2.7-2.319-3.519-5.075-3.471-8.675a10.5,10.5,0,0,1,1.932-5.518,16.57,16.57,0,0,1,13.6-7.558c2.6.007,5.544.563,7.52-1.264,1.122-1.037,1.647-2.63,2.563-3.88a7.613,7.613,0,0,1,8.158-2.572A10.684,10.684,0,0,1,2058.232,1121.721Z" transform="translate(-1101.169 2656.412)" fill="#353f49"/>
    <path id="Path_1615" data-name="Path 1615" d="M2299.784,1568.295c.122-1.655-21.034-60.491-24.1-69.047a11.114,11.114,0,0,0-1.6-3.1c-.471-.591-2.568-1.061-3.039-.458-4.853,6.225-12.774,22.869-12.236,30.96.6,9.065,16.14,46.128,17.444,46.362C2283.2,1574.262,2299.432,1574.838,2299.784,1568.295Z" transform="translate(-1281.323 2371.86)" fill="#808cbc"/>
    <path id="Path_1616" data-name="Path 1616" d="M2136.593,1781.365s54.281,6.163,61.7,2.235c5.817-3.079,8.412-14.1,4.41-15.979-3-1.408-8.475-3.41-11.668-3.192-12.9.881-52.669,8.83-52.669,8.83S2132.172,1780.184,2136.593,1781.365Z" transform="translate(-1187.614 2168.217)" fill="#e39265"/>
    <path id="Path_1617" data-name="Path 1617" d="M1898.188,1768.538s-48.509.69-54.722-3.431c-4.871-3.231-6.2-13.2-2.5-14.506,2.774-.982,7.788-2.271,10.591-1.8,11.319,1.909,45.77,12.418,45.77,12.418S1902.2,1767.881,1898.188,1768.538Z" transform="translate(-963.41 2180.111)" fill="#e39265"/>
    <path id="Path_1618" data-name="Path 1618" d="M2127.746,1773.343a13.952,13.952,0,0,0,2.922-4.441s.772-7.265,1.271-7.265c.938,0,16.02,7.509,15.733,9.232S2131.512,1777.686,2127.746,1773.343Z" transform="translate(-1182.122 2170.316)" fill="#f9af7d"/>
    <path id="Path_1619" data-name="Path 1619" d="M2133.01,1789.465c-2.658.752-5.378,2.2-6.258,5.142a8.616,8.616,0,0,0,1.241,7.3,8.072,8.072,0,0,0,9.245.554,7.575,7.575,0,0,0,7.424-.024,5.686,5.686,0,0,0,2.424-2.512,4,4,0,0,0-.069-3.6C2146.5,1795.458,2141.758,1786.992,2133.01,1789.465Z" transform="translate(-1181.121 2149.592)" fill="#e39265"/>
    <path id="Path_1620" data-name="Path 1620" d="M2098.315,1798.069a27.1,27.1,0,0,1-4.756,3.145,27.753,27.753,0,0,1-7.182,1.419c-1.261,0-2.6,5.005,2.927,6.057s7.07-1.45,10.467-.4S2100.936,1798.069,2098.315,1798.069Z" transform="translate(-1149.955 2142.736)" fill="#e39265"/>
    <path id="Path_1621" data-name="Path 1621" d="M2166.637,1764.658s.5,4.974.5,5.6-.248,4.1-.248,5.845,2.86,2.86,3.979-1.616c.76-3.34.926-4.187.926-5.624s-.249-5.721-1.216-6.687S2166.016,1761.287,2166.637,1764.658Z" transform="translate(-1211.509 2170.317)" fill="#fea371"/>
    <path id="Path_1622" data-name="Path 1622" d="M2185.113,1780.817s.255,4.455.225,5.008-.448,3.639-.532,5.188,2.717,2.7,4.052-1.222c.921-2.932,1.128-3.676,1.2-4.955s.03-5.1-.889-6.018S2184.656,1777.782,2185.113,1780.817Z" transform="translate(-1225.316 2157.741)" fill="#fea371"/>
    <path id="Path_1623" data-name="Path 1623" d="M2201.856,1790.875s.271,3.648.246,4.1-.4,2.976-.466,4.244,2.578,2.23,3.81-.973a13.3,13.3,0,0,0,1.095-4.048c.057-1.047-.007-4.179-.879-4.933S2201.4,1788.388,2201.856,1790.875Z" transform="translate(-1238.059 2149.763)" fill="#fea371"/>
    <path id="Path_1624" data-name="Path 1624" d="M2142.834,1752.268s.479,5.213.479,5.87-.551,4.05-.551,5.891,3.621,3.622,4.8-1.112c.8-3.531.979-4.426.979-5.946s-.263-6.048-1.285-7.07S2142.177,1748.7,2142.834,1752.268Z" transform="translate(-1193.489 2179.687)" fill="#fea371"/>
    <path id="Path_1625" data-name="Path 1625" d="M2263.751,1758.05c-2.1-2.839-9.687-6.687-12.921-6.474-7.581.5-25.017,3.6-37.738,5.921.455,4.371,1.592,14.733,2.137,19.1,0,0,40.832-.183,45.354-2.542C2266.472,1770.985,2266.412,1761.645,2263.751,1758.05Z" transform="translate(-1246.733 2177.94)" fill="#808cbc"/>
    <path id="Path_1626" data-name="Path 1626" d="M2048.089,1769.191a14.016,14.016,0,0,1-2.741-4.441s-.724-7.265-1.192-7.265c-.88,0-15.026,7.509-14.758,9.232S2044.556,1773.533,2048.089,1769.191Z" transform="translate(-1107.666 2173.461)" fill="#f9af7d"/>
    <path id="Path_1627" data-name="Path 1627" d="M2039.857,1785.313c2.494.752,5.045,2.2,5.87,5.142a9.085,9.085,0,0,1-1.164,7.3,7.194,7.194,0,0,1-8.672.553,6.722,6.722,0,0,1-6.964-.024,5.541,5.541,0,0,1-2.274-2.511,4.236,4.236,0,0,1,.065-3.6C2027.2,1791.306,2031.652,1782.84,2039.857,1785.313Z" transform="translate(-1105.31 2152.734)" fill="#e39265"/>
    <path id="Path_1628" data-name="Path 1628" d="M2086.485,1793.917a25.385,25.385,0,0,0,4.461,3.145,24.6,24.6,0,0,0,6.737,1.419c1.183,0,2.444,5.005-2.745,6.057s-6.632-1.45-9.818-.4S2084.027,1793.917,2086.485,1793.917Z" transform="translate(-1148.627 2145.88)" fill="#e39265"/>
    <path id="Path_1629" data-name="Path 1629" d="M2054.585,1760.507s-.466,4.974-.466,5.6.234,4.1.234,5.844-2.683,2.86-3.733-1.617a24.369,24.369,0,0,1-.868-5.624c0-1.437.233-5.72,1.14-6.687S2055.169,1757.135,2054.585,1760.507Z" transform="translate(-1123.075 2173.46)" fill="#fea371"/>
    <path id="Path_1630" data-name="Path 1630" d="M2037.115,1776.665s-.24,4.455-.211,5.008.42,3.639.5,5.189-2.548,2.7-3.8-1.222a19.459,19.459,0,0,1-1.123-4.955c-.065-1.279-.027-5.105.834-6.018S2037.544,1773.631,2037.115,1776.665Z" transform="translate(-1109.983 2160.885)" fill="#fea371"/>
    <path id="Path_1631" data-name="Path 1631" d="M2022.441,1786.723s-.254,3.648-.231,4.1.372,2.976.437,4.244-2.419,2.23-3.573-.973a14,14,0,0,1-1.027-4.048c-.054-1.046.006-4.179.824-4.933S2022.864,1784.236,2022.441,1786.723Z" transform="translate(-1099.063 2152.906)" fill="#fea371"/>
    <path id="Path_1632" data-name="Path 1632" d="M2075.284,1748.115s-.45,5.213-.45,5.87.517,4.05.517,5.891-3.4,3.621-4.507-1.112a25.772,25.772,0,0,1-.918-5.945c0-1.519.247-6.048,1.206-7.07S2075.9,1744.551,2075.284,1748.115Z" transform="translate(-1138.349 2182.83)" fill="#fea371"/>
    <path id="Path_1633" data-name="Path 1633" d="M1820.542,1744.485c1.964-2.793,9.056-6.579,12.079-6.369,7.087.493,23.387,3.542,35.28,5.825-.426,4.3-1.488,14.494-2,18.793,0,0-38.172-.18-42.4-2.5C1818,1757.21,1818.054,1748.021,1820.542,1744.485Z" transform="translate(-948.329 2188.131)" fill="#313133"/>
    <path id="Path_1634" data-name="Path 1634" d="M2301.538,1898.414h0c-2.3,0-4.179,1.017-4.179,2.261v25.293c0,1.243,1.88,2.261,4.179,2.261h0c2.3,0,4.178-1.018,4.178-2.261v-25.293C2305.716,1899.431,2303.836,1898.414,2301.538,1898.414Z" transform="translate(-1310.526 2066.771)" fill="#ccc"/>
    <path id="Path_1635" data-name="Path 1635" d="M2325.24,1899.487H2287.6a3.667,3.667,0,0,1-3.657-3.656h0a3.668,3.668,0,0,1,3.657-3.657h37.639a3.668,3.668,0,0,1,3.656,3.657h0A3.667,3.667,0,0,1,2325.24,1899.487Z" transform="translate(-1300.371 2071.494)" fill="#ccc"/>
    <rect id="Rectangle_124" data-name="Rectangle 124" width="178.941" height="14.691" transform="translate(794.254 3952.113)" fill="#282f39"/>
    <rect id="Rectangle_125" data-name="Rectangle 125" width="136.025" height="39.363" transform="translate(815.713 3955.637)" fill="#282f39"/>
    <path id="Path_1636" data-name="Path 1636" d="M1666.792,1567.016h79.274a5.454,5.454,0,0,1,5.023,4.094l12.741,56.086a3.172,3.172,0,0,1-3.164,4.094h-79.274a5.454,5.454,0,0,1-5.023-4.094l-12.741-56.086A3.172,3.172,0,0,1,1666.792,1567.016Z" transform="translate(-830.685 2317.654)" fill="#c5cce8"/>
    <path id="Path_1637" data-name="Path 1637" d="M1657.661,1567.016h79.274a5.455,5.455,0,0,1,5.024,4.094L1754.7,1627.2a3.172,3.172,0,0,1-3.164,4.094h-79.274a5.454,5.454,0,0,1-5.023-4.094l-12.741-56.086A3.172,3.172,0,0,1,1657.661,1567.016Z" transform="translate(-823.771 2317.654)" fill="#a3b4c5"/>
    <path id="Path_1638" data-name="Path 1638" d="M1657.661,1567.016h79.274a5.455,5.455,0,0,1,5.024,4.094L1754.7,1627.2a3.172,3.172,0,0,1-3.164,4.094h-79.274a5.454,5.454,0,0,1-5.023-4.094l-12.741-56.086A3.172,3.172,0,0,1,1657.661,1567.016Z" transform="translate(-823.771 2317.654)" fill="#b2bbe0"/>
    <path id="Path_1639" data-name="Path 1639" d="M1690.377,1667.788l-20.492-38.132,10.158,44.716a4.346,4.346,0,0,0,3.947,3.234h79.274a2.451,2.451,0,0,0,1.031-.214C1741.122,1675.765,1690.377,1667.788,1690.377,1667.788Z" transform="translate(-835.499 2270.232)" fill="#9faad8"/>
    <path id="Path_1640" data-name="Path 1640" d="M1763.527,1571.561h-15.74l59.1,37.61Z" transform="translate(-894.475 2314.214)" fill="#c1c9e6"/>
    <path id="Path_1641" data-name="Path 1641" d="M1904.557,1574.794a4.346,4.346,0,0,0-3.947-3.234H1870.6l39.579,27.965Z" transform="translate(-987.447 2314.214)" fill="#c1c9e6"/>
    <path id="Path_1642" data-name="Path 1642" d="M1829.141,1834.735H1719.153a1.589,1.589,0,0,1-1.585-1.585h0a1.59,1.59,0,0,1,1.585-1.585h109.988a1.589,1.589,0,0,1,1.585,1.585h0A1.589,1.589,0,0,1,1829.141,1834.735Z" transform="translate(-871.598 2117.379)" fill="#c5cce8"/>
    <path id="Path_1643" data-name="Path 1643" d="M1805.663,1834.735h-86.51a1.589,1.589,0,0,1-1.585-1.585h0a1.59,1.59,0,0,1,1.585-1.585h86.51a1.59,1.59,0,0,1,1.585,1.585h0A1.589,1.589,0,0,1,1805.663,1834.735Z" transform="translate(-871.598 2117.379)" fill="#59638b"/>
    <rect id="Rectangle_126" data-name="Rectangle 126" width="259.092" height="222.182" transform="translate(785.042 3767.684)" fill="none"/>
  </g>
</svg>
