<svg xmlns="http://www.w3.org/2000/svg" width="497" height="255" viewBox="0 0 497 255">
  <g id="Group_1273" data-name="Group 1273" transform="translate(-1217 -3740)">
    <rect id="Rectangle_129" data-name="Rectangle 129" width="497" height="255" rx="8" transform="translate(1217 3740)" fill="#e7f6fe"/>
    <rect id="Rectangle_111" data-name="Rectangle 111" width="183.016" height="113.831" rx="11" transform="translate(1377.131 3776.666)"/>
    <path id="Rectangle_112" data-name="Rectangle 112" d="M4.895,0H166.76a4.894,4.894,0,0,1,4.894,4.894V97.3a4.894,4.894,0,0,1-4.894,4.894H4.894A4.894,4.894,0,0,1,0,97.3V4.895A4.895,4.895,0,0,1,4.895,0Z" transform="translate(1382.342 3782.043)" fill="#929394"/>
    <path id="Path_1499" data-name="Path 1499" d="M815.957,444.066V433.08a1.1,1.1,0,0,0-.983-1.181H645.286a1.1,1.1,0,0,0-.983,1.181v69.1Z" transform="translate(738.039 3350.143)" fill="#9d9fa2" opacity="0.5" style="mix-blend-mode: multiply;isolation: isolate"/>
    <path id="Path_1500" data-name="Path 1500" d="M599.229,756.247l.018,1.439.163,3.579-7.045-.927-.768-1.044-.061-2.719-.232-2.547h4.683Z" transform="translate(783.346 3074.77)" fill="#e8a185"/>
    <path id="Path_1501" data-name="Path 1501" d="M634.766,1343.756a10.267,10.267,0,0,1,0,3.61c-.351,2.025-9.489,50.183-9.489,50.183l4.823.7s15.736-44.725,16.615-47.718,1.845-7.219-1.142-10.477S634.766,1343.756,634.766,1343.756Z" transform="translate(754.303 2574.539)" fill="#e8a185"/>
    <path id="Path_1502" data-name="Path 1502" d="M640.179,1709.85l-5.77-6.963-5.77,2.4,1.445,2,6.285,3.161s2.686.54,2.826.5A9.241,9.241,0,0,0,640.179,1709.85Z" transform="translate(751.428 2263.63)" fill="#e8a185"/>
    <path id="Path_1503" data-name="Path 1503" d="M634.982,1723.969l1.251,1.568a.924.924,0,0,1-1.007,1.462l-12.107-4.025a.817.817,0,0,1-.517-1.032l.841-2.539C630.655,1724.656,633.7,1724.8,634.982,1723.969Z" transform="translate(756.625 2249.512)" fill="#030303"/>
    <path id="Path_1504" data-name="Path 1504" d="M515.52,630.98a6.385,6.385,0,0,0-6.442,0c-3.429,1.976-3.429,8.641-2.078,10.236s-.069,3.754,2.632,5.836,7,2.847,9.458.414.655-7.859.655-7.859Z" transform="translate(856.131 3180.707)" fill="#353f49"/>
    <path id="Path_1505" data-name="Path 1505" d="M579.084,1728.739l-6.629-4.141-5.758,3.449,2,1.44,6.958,1.017s2.719-.336,2.839-.416A9.282,9.282,0,0,0,579.084,1728.739Z" transform="translate(804.381 2245.07)" fill="#e8a185"/>
    <path id="Path_1506" data-name="Path 1506" d="M541.863,1324.671s.949,22.949,1.037,26.911,2.109,33.367,2.987,35.921l4.92-.352s3.356-56.933,2.3-62.48S541.863,1324.671,541.863,1324.671Z" transform="translate(825.611 2589.059)" fill="#e8a185"/>
    <path id="Path_1507" data-name="Path 1507" d="M434.551,1209.63c-1.7-.349-2.118.746-3.832.388l.4,2.649c-.23.515-.744,1.891-.744,1.891-1.909,5.543-1.8,4.946-1.614,5.049s1.624-1.947,1.787-1.756-.821,3.489-.528,3.4,1.57-3.021,1.736-2.911-.83,3.279-.4,3.39,1.405-3.4,1.712-3.17-.782,3.8-.373,3.834c.344.031,1.659-3.931,2.069-5.193a.215.215,0,0,1,.373-.066c1.645,2.059,1.893,2.122,2.077,1.89a34.848,34.848,0,0,0-1.388-4.549l-.894-2.61Z" transform="translate(922.377 2685.354)" fill="#e8a185"/>
    <path id="Path_1508" data-name="Path 1508" d="M579.084,1749.052l1.68,1.094a.925.925,0,0,1-.5,1.7H567.512a.816.816,0,0,1-.815-.816v-2.675C575.192,1751.07,578.127,1750.245,579.084,1749.052Z" transform="translate(804.381 2224.758)" fill="#030303"/>
    <path id="Path_1509" data-name="Path 1509" d="M919.567,768.792a.2.2,0,0,0,.345.106c.894-.892,3.722-3.678,4-3.5.331.21-2.137,2.762-1.975,3.088s2.505-2.224,2.822-1.943-1.9,2.534-1.8,2.7,2.445-1.767,2.731-1.713-1.975,2.421-1.92,2.654,2.158-.882,2.274-.712.222.263-3.794,4.132l-1.646,1.455-1.984.461-1.4-2.013s1.141-7.093,1.41-7.215S919.064,766.333,919.567,768.792Z" transform="translate(504.738 3065.059)" fill="#e8a185"/>
    <path id="Path_1510" data-name="Path 1510" d="M510.043,1075.658l4.081,15.137c9.427-.01,23.49-.885,30.475-5.552,0,0-9.132-42.532-15.195-53.185l-20.822-1.145s-14.44,20.156-3.9,59.6c0,0,1.8.133,4.68.217Z" transform="translate(860.684 2838.07)" fill="#252426"/>
    <path id="Path_1511" data-name="Path 1511" d="M685.774,681.925a1.853,1.853,0,1,0,2.475-1.5A2.077,2.077,0,0,0,685.774,681.925Z" transform="translate(702.732 3137.766)" fill="#e8a185"/>
    <path id="Path_1512" data-name="Path 1512" d="M590.779,749.583s.186,1.445.308,3.192a7.534,7.534,0,0,0,5.732,1.655,7.413,7.413,0,0,0,1.979-.543,9.213,9.213,0,0,1,.144-2.7C599.426,749.793,590.779,749.583,590.779,749.583Z" transform="translate(783.795 3078.568)" fill="#e8a185"/>
    <path id="Path_1513" data-name="Path 1513" d="M691.768,800.28l19.727,14.972,12.63-12.981s3.778,2.921,3.778,2.867-11.875,18.552-14.789,19.526S691.392,812.5,691.392,812.5Z" transform="translate(697.785 3035.23)" fill="#808cbc"/>
    <path id="Path_1514" data-name="Path 1514" d="M564.506,632.077a9.421,9.421,0,0,0,.67-1.607,17.927,17.927,0,0,0,.813-4.479c.018-.3.054-.591.1-.886a9.65,9.65,0,1,0-19.2-1.01,2.08,2.08,0,0,0-1.882-.082,2.915,2.915,0,0,0,2.492,5.111,1.842,1.842,0,0,0,.422-.288,9.052,9.052,0,0,0,9.273,8,8.649,8.649,0,0,0,5.785-2.652,4.313,4.313,0,0,0,.316-.318A8.38,8.38,0,0,0,564.506,632.077Z" transform="translate(823.902 3194.391)" fill="#e8a185"/>
    <path id="Path_1518" data-name="Path 1518" d="M469.8,811.213c.07-.073,3.1-3.308,2.507-9.374a17.88,17.88,0,0,0-3.518-8.378,7.209,7.209,0,0,0-5.711-2.987c-4.139-.077-10.746-.167-10.746-.167s-8.524-.938-11.226,2.4-11.85,26.457-12.37,37.5,2.183,24.062,2.183,24.062a28.907,28.907,0,0,0,4.366,0c1.351-.208-.312-21.354,1.143-24.791s8-19.9,8.42-21.458l1.622,8.617a8.907,8.907,0,0,1-.4,4.743c-1.377,3.716-4.034,10.857-5.1,13.5,0,0,20.464,3.3,30.547-1.7l-.092-.388A69.055,69.055,0,0,1,469.8,811.213Z" transform="translate(922.375 3043.859)" fill="#808cbc"/>
    <path id="Path_1521" data-name="Path 1521" d="M580.676,790.312s6.511,8.268,7.9,11.253c0,0,3.822-5.026,3.989-11.016Z" transform="translate(792.432 3043.75)" fill="#e8a185"/>
    <path id="Path_1522" data-name="Path 1522" d="M631.419,867.839c.175,2.868.286,5.74.349,8.612.039,1.436.049,2.873.068,4.309s.008,2.874,0,4.31c-.006.719-.015,1.437-.031,2.155s-.024,1.437-.045,2.155c-.05,1.436-.089,2.873-.174,4.308-.152,2.87-.37,5.741-.785,8.586l.072-1.075.081-1.073c.043-.716.073-1.434.11-2.15l.029-.537.02-.538.039-1.076.042-1.075.028-1.076c.083-2.868.125-5.738.147-8.608s.034-5.741.04-8.612Z" transform="translate(749.584 2977.477)" fill="#fff"/>
    <path id="Path_1523" data-name="Path 1523" d="M540.84,844.693c-.042.232-.076.464-.124.694s-.094.461-.154.688a9.184,9.184,0,0,1-.43,1.34,11.412,11.412,0,0,0,.318-1.365c.088-.458.149-.921.209-1.383.11-.926.169-1.858.195-2.79l.017-.7,0-.7c.008-.467-.023-.933-.03-1.4,0-.234-.024-.466-.034-.7l-.035-.7c-.029-.467-.071-.933-.1-1.4.077.462.142.927.21,1.391.047.466.1.933.137,1.4l.043.7c.016.234.022.469.026.7l.011.7Z" transform="translate(827.09 3004.459)" fill="#fff"/>
    <path id="Path_1524" data-name="Path 1524" d="M572.527,592.643c-1.784-6.143-9.928-6.36-9.928-6.36-12.6.875-10.612,11.947-10.2,13.779a2.056,2.056,0,0,1,1.476.258,3.46,3.46,0,0,1,.632.434c1.484-.453,1.933-2.922,2.7-4.111,1.042-1.614,5.634-.781,7.377-1.926a4.305,4.305,0,0,0,1.921-2.915c6.718,1.067,6.614,8.182,6.614,8.182a2.509,2.509,0,0,1,.649-.034S574.121,598.131,572.527,592.643Z" transform="translate(816.912 3218.166)" fill="#353f49"/>
    <path id="Rectangle_115" data-name="Rectangle 115" d="M1.963,0H232.789a1.963,1.963,0,0,1,1.963,1.963v0a1.963,1.963,0,0,1-1.963,1.963H1.963A1.963,1.963,0,0,1,0,1.963v0A1.963,1.963,0,0,1,1.963,0Z" transform="translate(1346.623 3976.58)" fill="#c7c7c7"/>
    <rect id="Rectangle_116" data-name="Rectangle 116" width="111.305" height="3.685" transform="translate(1446.332 3934.572)" fill="#929394"/>
    <path id="Path_1526" data-name="Path 1526" d="M1221.179,1699.295c.508,3.048,1.169,5.708,3.346,5.708s2.5-4.414,2.423-5.708A9.8,9.8,0,0,0,1221.179,1699.295Z" transform="translate(244.893 2267.082)" fill="#6fc2a1"/>
    <path id="Path_1527" data-name="Path 1527" d="M1294.113,1699.295c-.508,3.048-1.488,5.6-3.665,5.6s-2.177-4.3-2.1-5.6A9.8,9.8,0,0,1,1294.113,1699.295Z" transform="translate(187.492 2267.082)" fill="#6fc2a1"/>
    <path id="Path_1528" data-name="Path 1528" d="M1206.9,1574.774c.222,8.665,1.431,17.732,1.883,18.506.443.69,5.33.847,6.467,0,.218-9.841.218-15.748.218-15.748,2.322-.1,3,.976,3,.976.29,10.345-.1,13.731,0,14.6,1.113.968,5.756.868,6.143.191a182.259,182.259,0,0,0,3.34-18.575C1217.662,1572.616,1206.9,1574.774,1206.9,1574.774Z" transform="translate(257.098 2373.98)" fill="#262626"/>
    <rect id="Rectangle_117" data-name="Rectangle 117" width="33.771" height="3.685" transform="translate(1457.541 3952.488)" fill="#929394"/>
    <path id="Path_1529" data-name="Path 1529" d="M1219.254,1534.714a9.066,9.066,0,0,1-2.116-3.8l-9.1,5.04-9.1-5.04a14.675,14.675,0,0,0-2.769,3.8c-1.059,1.981-.9,5.588,4.094,7.626,1.849.755,5,.8,8.152.882,3.19.079,6.416-.241,8.238-1.121C1220.212,1540.382,1220.579,1536.3,1219.254,1534.714Z" transform="translate(266.721 2410.638)" fill="#262626"/>
    <path id="Path_1530" data-name="Path 1530" d="M1176.2,1476.788a24.239,24.239,0,0,0-1.17,5.194,4.635,4.635,0,0,0,4.138,3.71c2.112,0,2.369-10.188,2.369-10.188Z" transform="translate(284.342 2458.01)" fill="#edb289"/>
    <path id="Path_1531" data-name="Path 1531" d="M1343.051,1476.788a24.251,24.251,0,0,1,1.17,5.194,4.635,4.635,0,0,1-4.138,3.71c-2.112,0-2.369-10.188-2.369-10.188Z" transform="translate(145.271 2458.01)" fill="#edb289"/>
    <path id="Path_1532" data-name="Path 1532" d="M1207,1418.722a13.49,13.49,0,0,0-8.244-11.262h-12.879a13.49,13.49,0,0,0-8.244,11.262,8.83,8.83,0,0,0,4.791,1.462s-1.369,7.373-1.649,8.991a17.026,17.026,0,0,0,10.7,3.84q.846-.006,1.692,0a17.026,17.026,0,0,0,10.7-3.84c-.28-1.618-1.649-8.991-1.649-8.991A8.83,8.83,0,0,0,1207,1418.722Z" transform="translate(282.123 2516.178)" fill="#6fc2a1"/>
    <path id="Path_1533" data-name="Path 1533" d="M1098.565,1224.393a5.906,5.906,0,0,0-.527-8.631,6.759,6.759,0,0,0-5.735-1.322c-7.044,1.3-7.815,11.839-7.633,13.688,0,0,1.856-2.577,4.123-2.375s7.317,1.224,9.7-1.286Z" transform="translate(361.606 2681.307)" fill="#353f49"/>
    <path id="Path_1534" data-name="Path 1534" d="M1098.149,1215.763a6.759,6.759,0,0,0-5.735-1.322c-.1.018-.19.038-.283.059.16.049.317.1.469.165a5.068,5.068,0,0,1,2.6,6.948l-.039.079c-1.324,2.659-5.725,3.091-7.635,3.5-1.7.359-2.574,2.429-2.751,2.892,0,.017,0,.034,0,.049,0,0,1.857-2.577,4.123-2.375s7.317,1.224,9.7-1.286l.071-.075A5.906,5.906,0,0,0,1098.149,1215.763Z" transform="translate(361.496 2681.307)" fill="#353f49" opacity="0.5" style="mix-blend-mode: multiply;isolation: isolate"/>
    <path id="Path_1535" data-name="Path 1535" d="M1182.832,1257.1c-.124,0-3.241-1.267-4.106-.5-.84.747-2.364,3.858-1.991,4.635a12.252,12.252,0,0,0,1.96,2.24l4.324-2.831Z" transform="translate(282.936 2645.348)" fill="#6fc2a1"/>
    <path id="Path_1536" data-name="Path 1536" d="M1368.475,1224.393a5.906,5.906,0,0,1,.527-8.631,6.758,6.758,0,0,1,5.735-1.322c7.044,1.3,7.815,11.839,7.632,13.688,0,0-1.856-2.577-4.123-2.375s-7.317,1.224-9.7-1.286Z" transform="translate(120.364 2681.307)" fill="#353f49"/>
    <path id="Path_1537" data-name="Path 1537" d="M1369,1215.763a6.758,6.758,0,0,1,5.735-1.322c.1.018.19.038.283.059-.16.049-.317.1-.469.165a5.068,5.068,0,0,0-2.6,6.948l.039.079c1.325,2.659,5.725,3.091,7.636,3.5,1.695.359,2.574,2.429,2.751,2.892,0,.017,0,.034,0,.049,0,0-1.856-2.577-4.123-2.375s-7.317,1.224-9.7-1.286l-.071-.075A5.906,5.906,0,0,1,1369,1215.763Z" transform="translate(120.364 2681.307)" fill="#353f49" opacity="0.5" style="mix-blend-mode: multiply;isolation: isolate"/>
    <path id="Path_1538" data-name="Path 1538" d="M1338.4,1257.1c.124,0,3.241-1.267,4.107-.5.84.747,2.364,3.858,1.991,4.635a12.262,12.262,0,0,1-1.96,2.24l-4.324-2.831Z" transform="translate(144.846 2645.348)" fill="#6fc2a1"/>
    <path id="Path_1539" data-name="Path 1539" d="M1198.711,1235.477c-5.167-5.475-10.792-3.173-10.792-3.173s-5.625-2.3-10.793,3.173-9.877,22.835,7.653,24.079h6.279C1208.587,1258.311,1203.878,1240.952,1198.711,1235.477Z" transform="translate(286.588 2666.322)" fill="#353f49"/>
    <path id="Path_1540" data-name="Path 1540" d="M1201.967,1261.384c.531,7.674-.937,8.429-4.912,8.79-4.106.373-4.791-2.489-9.52-1.8s-7.964,3.982-11.412.5c-2.117-2.139-.439-8.476,1.172-13.05-.056.058-.113.111-.169.171-5.167,5.476-9.877,22.834,7.653,24.079h6.279C1204.511,1279.112,1204.865,1268.666,1201.967,1261.384Z" transform="translate(286.588 2645.811)" fill="#8fbaf6" opacity="0.5" style="mix-blend-mode: multiply;isolation: isolate"/>
    <path id="Path_1541" data-name="Path 1541" d="M1217.215,1243.125c-2.373.671-4.613.094-5-1.287s1.216-3.046,3.589-3.717,4.614-.095,5,1.287S1219.589,1242.454,1217.215,1243.125Z" transform="translate(252.609 2661.178)" fill="#2a3748" opacity="0.5"/>
    <path id="Path_1542" data-name="Path 1542" d="M1290.064,1241.826c2.373.671,4.614.095,5-1.287s-1.216-3.046-3.589-3.717-4.613-.095-5,1.287S1287.692,1241.155,1290.064,1241.826Z" transform="translate(189.123 2662.289)" fill="#353f49" opacity="0.5"/>
    <path id="Path_1543" data-name="Path 1543" d="M1200.924,1495.124s-1.369,7.373-1.649,8.991a17.027,17.027,0,0,0,10.7,3.84q.846-.006,1.692,0a17.027,17.027,0,0,0,10.7-3.84c-.1-.583-.343-1.914-.612-3.378C1204.575,1506.1,1200.924,1495.124,1200.924,1495.124Z" transform="translate(263.617 2441.237)" fill="#6fc2a1" opacity="0.5"/>
    <path id="Path_1544" data-name="Path 1544" d="M1177.828,1475.311c-.086.453-.155.922-.2,1.414a8.83,8.83,0,0,0,4.791,1.462l.606-1.618A10.086,10.086,0,0,1,1177.828,1475.311Z" transform="translate(282.123 2458.176)" fill="#5cb30b" opacity="0.5"/>
    <path id="Path_1545" data-name="Path 1545" d="M1347.972,1475.311c.086.453.155.922.2,1.414a8.83,8.83,0,0,1-4.791,1.462l-.607-1.618A10.086,10.086,0,0,0,1347.972,1475.311Z" transform="translate(140.945 2458.176)" fill="#5cb30b" opacity="0.5"/>
    <path id="Path_1546" data-name="Path 1546" d="M1199.275,1468.478q.255-1.9.587-3.792c.217-1.26.457-2.515.7-3.77s.511-2.5.793-3.752.579-2.491.908-3.728q-.253,1.9-.587,3.792c-.216,1.26-.457,2.515-.7,3.769s-.511,2.5-.793,3.751S1199.6,1467.24,1199.275,1468.478Z" transform="translate(263.617 2476.875)" fill="#fff"/>
    <path id="Path_1547" data-name="Path 1547" d="M1340.7,1468.478q-.254-1.9-.587-3.792c-.216-1.26-.457-2.515-.7-3.77s-.511-2.5-.792-3.752-.579-2.491-.908-3.728q.254,1.9.587,3.792c.216,1.26.457,2.515.7,3.769s.511,2.5.793,3.751S1340.375,1467.24,1340.7,1468.478Z" transform="translate(145.271 2476.875)" fill="#fff"/>
    <path id="Path_1548" data-name="Path 1548" d="M1205.61,1631.625v12.907h-24.024v-12.907h-2.444v20.406h2.444v-5.056h24.024v5.056h2.444v-20.406Z" transform="translate(280.828 2324.549)" fill="#929394"/>
    <path id="Path_1549" data-name="Path 1549" d="M1590.936,1709.02c.508,3.048,1.169,5.708,3.346,5.708s2.5-4.414,2.423-5.708A9.8,9.8,0,0,0,1590.936,1709.02Z" transform="translate(-71.197 2258.769)" fill="#808cbc"/>
    <path id="Path_1550" data-name="Path 1550" d="M1663.87,1709.02c-.508,3.048-1.488,5.6-3.665,5.6s-2.177-4.3-2.1-5.6A9.8,9.8,0,0,1,1663.87,1709.02Z" transform="translate(-128.596 2258.769)" fill="#808cbc"/>
    <path id="Path_1551" data-name="Path 1551" d="M1576.658,1584.5c.222,8.665,1.431,17.732,1.883,18.506.443.69,5.33.847,6.467,0,.218-9.841.218-15.748.218-15.748,2.322-.1,3,.977,3,.977.29,10.344-.1,13.731,0,14.6,1.113.968,5.756.868,6.143.191a182.246,182.246,0,0,0,3.34-18.575C1587.419,1582.342,1576.658,1584.5,1576.658,1584.5Z" transform="translate(-58.99 2365.667)" fill="#262626"/>
    <rect id="Rectangle_118" data-name="Rectangle 118" width="33.771" height="3.685" transform="translate(1511.309 3952.488)" fill="#929394"/>
    <path id="Path_1552" data-name="Path 1552" d="M1576.055,1631.625v12.907h-24.024v-12.907h-2.444v20.406h2.444v-5.056h24.024v5.056h2.444v-20.406Z" transform="translate(-35.85 2324.549)" fill="#929394"/>
    <path id="Path_1553" data-name="Path 1553" d="M1534.88,1465.973s-1.312,4-1.251,5.551a4.954,4.954,0,0,0,4.423,3.965c2.257,0,2.531-10.889,2.531-10.889Z" transform="translate(-22.207 2467.332)" fill="#edb289"/>
    <path id="Path_1554" data-name="Path 1554" d="M1722.266,1465.973s1.312,4,1.251,5.551a4.954,4.954,0,0,1-4.423,3.965c-2.257,0-2.531-10.889-2.531-10.889Z" transform="translate(-178.588 2467.332)" fill="#edb289"/>
    <path id="Path_1555" data-name="Path 1555" d="M1587.842,1542.307l-8.627-1.418-3.744,2.168-3.744-2.168-8.627,1.418a7.585,7.585,0,0,0,4.827,8.647c1.623.687,4.446.414,7.3.433,3.017.02,6.071.292,7.785-.433A7.585,7.585,0,0,0,1587.842,1542.307Z" transform="translate(-47.279 2402.115)" fill="#262626"/>
    <path id="Path_1556" data-name="Path 1556" d="M1572.324,1403.381a18.1,18.1,0,0,0-8.968-12.124l-6.749.444-6.748-.444a18.1,18.1,0,0,0-8.968,12.124s.32,2.407,3.615,4.209l-1.144,7.686s2.575,4.737,12.353,5.028v0c.242.006.479.008.713.009h.359c.234,0,.471,0,.713-.009v0c9.779-.291,12.353-5.028,12.353-5.028l-1.144-7.686C1572,1405.789,1572.324,1403.381,1572.324,1403.381Z" transform="translate(-28.416 2530.029)" fill="#808cbc"/>
    <path id="Path_1557" data-name="Path 1557" d="M1567.234,1208.446c4.072-.778-3.935-5.033-3.935-5.033s3.477.092,3.538-1.464-6.146-1.235-6.146-1.235,4.209-1.739,3.249-2.654c-.791-.754-7.328.157-9.615.5.571-.637.885-1.353.312-1.951-1.4-1.464-9.536,3.791-9.536,3.791h0a10.948,10.948,0,0,0-4.586,5.177s-.846-1.365-1.281-.946c-.881.85.732,2.165.732,2.165a2.781,2.781,0,0,0-2.036-.3.3.3,0,0,0-.209.25c-.145,1.162,1.391,1.453,1.391,1.453s-4.68,7.99-.312,6.427c0,0-2.715,6.5.517,5.666,1.574,6.832,8.145,8.6,10.257,8.328a17.1,17.1,0,0,1,4.575.183c11.255.32,12.689-9.837,12.689-9.837,3.081,2.2.671-4.209.671-4.209C1572.313,1216.362,1567.234,1208.446,1567.234,1208.446Z" transform="translate(-25.035 2696.643)" fill="#353f49"/>
    <path id="Path_1558" data-name="Path 1558" d="M1555.217,1248.066c-4.026,4.3-5.49-.458-5.49-.458-2.562.732-1.922-3.843-1.922-3.843-7.137-.091-3.568-9.86-3.568-9.86-2.743.016-1.039-4.315.245-6.94a10.843,10.843,0,0,0-3.966,4.782s-.846-1.365-1.281-.946c-.881.851.732,2.166.732,2.166a2.781,2.781,0,0,0-2.036-.3.3.3,0,0,0-.209.25c-.145,1.162,1.391,1.453,1.391,1.453s-4.68,7.99-.312,6.427c0,0-2.715,6.5.517,5.666,1.574,6.832,8.145,8.6,10.257,8.328a17.105,17.105,0,0,1,4.575.183c11.255.32,12.689-9.837,12.689-9.837C1562.629,1254.837,1555.217,1248.066,1555.217,1248.066Z" transform="translate(-25.035 2670.475)" fill="#2a3748"/>
    <path id="Path_1560" data-name="Path 1560" d="M1560.186,1455.235q.08-.362.164-.725-.185,1.874-.449,3.736c-.171,1.242-.365,2.48-.563,3.717s-.418,2.471-.653,3.7-.485,2.46-.766,3.684q.186-1.874.45-3.735c.17-1.242.364-2.48.563-3.717s.417-2.471.652-3.7q.276-1.484.6-2.959Z" transform="translate(-42.971 2475.957)" fill="#fff"/>
    <path id="Path_1561" data-name="Path 1561" d="M1726.111,1469.361q-.186-1.874-.45-3.735c-.17-1.242-.364-2.48-.563-3.717s-.417-2.471-.652-3.7-.485-2.46-.766-3.684q.185,1.875.449,3.736c.17,1.242.364,2.48.563,3.717s.418,2.471.653,3.7S1725.83,1468.138,1726.111,1469.361Z" transform="translate(-184.674 2475.945)" fill="#fff"/>
    <rect id="Rectangle_119" data-name="Rectangle 119" width="3.167" height="38.323" transform="translate(1451.297 3938.258)" fill="#929394"/>
    <rect id="Rectangle_120" data-name="Rectangle 120" width="3.167" height="38.323" transform="translate(1549.506 3938.258)" fill="#929394"/>
  </g>
</svg>
