<svg xmlns="http://www.w3.org/2000/svg" width="497" height="256" viewBox="0 0 497 256">
  <g id="Group_1271" data-name="Group 1271" transform="translate(-154 -3827)">
    <g id="Rectangle_127" data-name="Rectangle 127" transform="translate(154 3827)" fill="#e7f6fe" stroke="#dcdbdb" stroke-width="0.29">
      <rect width="497" height="256" rx="8" stroke="none"/>
      <rect x="0.145" y="0.145" width="496.71" height="255.71" rx="7.855" fill="none"/>
    </g>
    <path id="Path_1410" data-name="Path 1410" d="M292.412,188.854a14.7,14.7,0,0,0-2.364.206c0-.069.01-.137.01-.206a14.9,14.9,0,0,0-29.168-4.309,14.9,14.9,0,0,0-29.169,4.309c0,.17.022.334.027.5a14.9,14.9,0,1,0,.166,28.756,14.892,14.892,0,0,0,28.977,2.032,14.893,14.893,0,0,0,28.928-1.724,14.9,14.9,0,1,0,2.595-29.567Z" transform="translate(144.66 3837.828)" fill="#fff"/>
    <path id="Path_1411" data-name="Path 1411" d="M39.059,108.127a14.61,14.61,0,0,0,26.808,8.044,14.6,14.6,0,0,0,24.3.361,14.6,14.6,0,0,0,26.162-4.633c.16.006.316.025.478.025a14.613,14.613,0,1,0-11.375-23.774A14.59,14.59,0,0,0,81.385,73.835,22.423,22.423,0,1,0,44.026,97.169,14.566,14.566,0,0,0,39.059,108.127Z" transform="translate(146.816 3839.24)" fill="#fff"/>
    <path id="Path_1412" data-name="Path 1412" d="M372.523,118.756a14.609,14.609,0,0,0,26.808,8.043,14.6,14.6,0,0,0,24.294.362,14.6,14.6,0,0,0,26.163-4.633c.16.006.316.025.478.025a14.613,14.613,0,1,0-11.375-23.774,14.59,14.59,0,0,0-24.042-14.314A22.423,22.423,0,1,0,377.49,107.8,14.563,14.563,0,0,0,372.523,118.756Z" transform="translate(142.709 3839.109)" fill="#fff"/>
    <path id="Path_1414" data-name="Path 1414" d="M157.37,214.919c-13.729-25.134-11.931-34.623-11.931-34.623l11.941-5.306a206.3,206.3,0,0,0,13.007,39.554C168.8,215.279,162.709,220.227,157.37,214.919Z" transform="translate(145.496 3837.816)" fill="#e8a185"/>
    <path id="Path_1415" data-name="Path 1415" d="M215.66,183.741c-.613-4.029-2.568-2.016-4.886-1.379-1.778.493-1.471.591-3.3,1.032a3.538,3.538,0,0,0,2.129-1.878c.555-1.416-1.02-1.8-1.02-1.8l-3.542,2.839c-.726.6-1.5,1.147-2.19,1.786a6.169,6.169,0,0,0-1.684,3.1,3.13,3.13,0,0,0,2.892,3.666c1.654.163,7.761-.955,10.215-2.8C214.273,188.3,217.452,185.081,215.66,183.741Z" transform="translate(144.809 3837.758)" fill="#e8a185"/>
    <path id="Path_1416" data-name="Path 1416" d="M163.545,203.539l38.05-17.346,1.977,4.394-33.044,24.095s-8.894,7.034-13.017.375C157.512,215.057,153.986,208.307,163.545,203.539Z" transform="translate(145.354 3837.68)" fill="#e8a185"/>
    <path id="Path_1417" data-name="Path 1417" d="M163.747,188.467c0,3-5.836,6.18-10.7,7.829a49.866,49.866,0,0,1-7.676,2.078c-7.163-21.091-9.764-30.511-10.156-34.157,0,0-.447-12.642,10.569-13.047,0,0,8.05-1.058,10.25,6.27C156.033,157.44,160.831,174.591,163.747,188.467Z" transform="translate(145.619 3838.109)" fill="#80d1b1"/>
    <rect id="Rectangle_109" data-name="Rectangle 109" width="14.567" height="20.237" transform="translate(264.734 3966.379)" fill="#e8a185"/>
    <path id="Path_1422" data-name="Path 1422" d="M133.48,137.385v-9.4H118.913V138.1C124.12,138.647,128.914,139.147,133.48,137.385Z" transform="translate(145.82 3838.395)" fill="#e8a185"/>
    <path id="Path_1423" data-name="Path 1423" d="M95.679,155.837a17.394,17.394,0,0,1,9.177-7.015l13.435-4.98h12.823l13.43,4.98a17.393,17.393,0,0,1,9.175,7.015Z" transform="translate(146.107 3838.201)" fill="#e8a185"/>
    <path id="Path_1424" data-name="Path 1424" d="M134.573,145.142l11.96,3.761s7.953,2.687,7.953,7.186l-3.391,18.593,5.139,66.3c-30.83,7.229-60.587.707-60.587.707l3.293-69.363-5.926-10.815a12.869,12.869,0,0,1,7.521-12.053l14.534-4.422S129.8,152.539,134.573,145.142Z" transform="translate(146.141 3838.188)" fill="#6fc2a1"/>
    <path id="Path_1425" data-name="Path 1425" d="M94.364,245.285s-2.437-32.6,6.988-61.248l-13.039-.69s-7.98,25.8-.949,61.493Z" transform="translate(146.244 3837.715)" fill="#e8a185"/>
    <path id="Path_1428" data-name="Path 1428" d="M113.361,171.663c4.866-15.1-4.828-18.659-4.828-18.659-10.277-5.589-14.731,3.028-14.731,3.028-1.371,2.927-5.2,14.194-8.226,29.943,5,4.774,13.027,9.361,19.366,9.561Z" transform="translate(146.23 3838.113)" fill="#80d1b1"/>
    <path id="Path_1429" data-name="Path 1429" d="M145,106.931a47.923,47.923,0,0,0,1.226-8.025c.226-2.427-1.859-10.634-4.85-11.191-4.148-.772-4.123,10.851-4.624,13.963-.7,4.286-.008,9.034.477,13.326.173,1.55-.109,4.594,1.547,5.472,1.417.752,1.149.962,1.988-.079C142.791,117.884,144.357,109.975,145,106.931Z" transform="translate(145.604 3838.893)" fill="#353f49"/>
    <path id="Path_1430" data-name="Path 1430" d="M140.708,127.181c-2.184,6.337-5.245,7.882-5.245,7.882l-3.97.441c-2.226-.472-6.03-1.7-6.03-1.7-8.674-3.767-11.65-3.826-13.112-8.62-.046-.147-4.22-24.632-4.22-24.632-.12-12.559,13.141-14.083,15.139-14.243,1.985-.29,14.7-2.724,17.385,9.545A65.235,65.235,0,0,1,140.708,127.181Z" transform="translate(145.953 3838.914)" fill="#e8a185"/>
    <path id="Path_1431" data-name="Path 1431" d="M112,111.273c3.035,3.542,4.807,8.986,9.727,10.593a6.255,6.255,0,0,0,6.21-.842c3.171-2.21,5.8.563,9.143-.237,2.724-.65,4.326-3.93,5.47-6.817-.123,4.115-.623,13.729-1.819,18.539-2.184,6.336-5.245,7.882-5.245,7.882l-3.97.443c-2.226-.473-6.03-1.706-6.03-1.706-8.674-3.765-11.65-3.825-13.112-8.619-.027-.088-1.529-13.894-2.732-20.944A5.9,5.9,0,0,1,112,111.273Z" transform="translate(145.934 3838.623)" fill="#353f49"/>
    <path id="Path_1432" data-name="Path 1432" d="M115.693,93.342c-.776.76-3.481,8.558-3.481,8.558s1.944,9.512,2.365,14.79l-2.465.135s-.2-3.767-2.025-4.232l2.054,11.968c-10.322-7.092-10.531-30.218-10.531-30.218Z" transform="translate(146.033 3838.822)" fill="#353f49"/>
    <path id="Path_1433" data-name="Path 1433" d="M112.788,114.794s-1.811-4.989-5.513-2.423c0,0-1.679,1.1,0,4.478,0,0,2.444,4.859,6.038,2.574Z" transform="translate(145.973 3838.598)" fill="#e8a185"/>
    <path id="Path_1434" data-name="Path 1434" d="M100.17,88.685c.549,1.732.847,3.633,1.424,5.323.786,2.308,1.042,2.582,3.4,2.584,2.076,0,4.049-1.162,5.567-2.129,3.177-2.025,4.855.671,8.228.872,2.349.139,3.837,1.39,6,1.745,2.429.4,3.924-.827,5.816-1.982,3.015-1.842,6.683-.444,10.064.033,8.235,1.163,12.585-8.256,10.636-15.483,0,0-1.9,3.368-5.3,3.839,0,0,8.216-7.529-1.594-17.338,0,0-3.843,11.358-18.44,10.582C125.966,76.73,102.009,73.89,100.17,88.685Z" transform="translate(146.051 3839.156)" fill="#353f49"/>
    <path id="Path_1435" data-name="Path 1435" d="M316.844,36.848,211.128,47.33a15.8,15.8,0,0,0-15.8,15.8v56.545a15.8,15.8,0,0,0,15.8,15.8H214.6l-3.83,25.667,27.581-25.667h78.488a15.8,15.8,0,0,0,15.8-15.8V52.645A15.8,15.8,0,0,0,316.844,36.848Z" transform="translate(144.879 3839.52)" fill="#dbdbdb"/>
    <path id="Path_1436" data-name="Path 1436" d="M316.844,36.848h-3.991a19.615,19.615,0,0,1,7.691,6.96c3.389,5.414,2.292,7.807,2.827,14,.57,6.608.675,23.763.62,30.393-.044,5.463.1,10.926.087,16.39-.01,4.275.454,9.171-2.188,12.834-3,4.164-9.693,5.038-14.412,5.654-7.226.945-28.479.793-35.714.521-12.806-.481-28.445.1-41.234,0-5.638-.044-12.317-.477-15.034-6.268-3.386-7.217-3.1-15.493-2.763-23.288.358-8.2-.242-16.532.712-24.69.7-6.031,2.166-12.265,5.953-17.163a23.372,23.372,0,0,1,5.112-4.865H211.128a15.8,15.8,0,0,0-15.8,15.8v56.545a15.8,15.8,0,0,0,15.8,15.8H214.6l-3.83,25.667,27.581-25.667h78.488a15.8,15.8,0,0,0,15.8-15.8V52.645A15.8,15.8,0,0,0,316.844,36.848Z" transform="translate(144.879 3839.52)" fill="#89c6e5"/>
    <path id="Path_1438" data-name="Path 1438" d="M292.334,89.352a2.962,2.962,0,0,1-2.963,2.963H239.618a2.963,2.963,0,0,1-2.963-2.963h0a2.963,2.963,0,0,1,2.963-2.963h49.753a2.962,2.962,0,0,1,2.963,2.963Z" transform="translate(144.369 3838.908)" fill="#fff"/>
    <path id="Path_1439" data-name="Path 1439" d="M292.334,104.746a2.962,2.962,0,0,1-2.963,2.963H239.618a2.963,2.963,0,0,1-2.963-2.963h0a2.963,2.963,0,0,1,2.963-2.963h49.753a2.962,2.962,0,0,1,2.963,2.963Z" transform="translate(144.369 3838.719)" fill="#fff"/>
    <path id="Path_1441" data-name="Path 1441" d="M337.147,166.778c1.178,15.165,2.188,32.367,1.935,46.51,1.744.077,10.051,2.955,12.966-3.986,2.044-27.156,1.015-37.19,1.015-37.19s.868-15.3-7.425-15.308C345.638,156.8,336.217,160.766,337.147,166.778Z" transform="translate(143.135 3838.043)" fill="#e8a185"/>
    <path id="Path_1443" data-name="Path 1443" d="M338.888,208.234,326.1,243.044l4.087,2.465L351.4,209.351s2.813-5.532-4.36-7.757C347.039,201.594,342.265,201.065,338.888,208.234Z" transform="translate(143.268 3837.49)" fill="#e8a185"/>
    <path id="Path_1444" data-name="Path 1444" d="M344.386,127.011c2.591,2.822,5.376,4.69,3.012,8.817-1.939,3.388-3.747,3.714-4.174,8.208-.516,5.464,1.7,9.058,5.826,12.389,3.17,2.562,5.989,3.817,5.3,8.135-.784,4.933-3.075,6.93,1.241,11.623,2.4,2.607,10.469,6.936,14.343,5.052,3.295-1.6,3.218-9.385,3.488-12.522.447-5.185,2.23-9.215,3.484-14.213,1.388-5.533.977-11.142,3.173-16.554,2.088-5.145,3.366-8.551,1.568-14.024-2.016-6.135-6.3-7.364-10.559-11.314-3.6-3.335-2.324-7.557-7.346-9.915-4.876-2.288-15.7-4.208-19.66.394C339.044,108.945,339.339,121.51,344.386,127.011Z" transform="translate(143.092 3838.738)" fill="#353f49"/>
    <path id="Path_1445" data-name="Path 1445" d="M365.067,231.63v-9H342.9c-1.175,3.661-2.02,6.52-2.637,9Z" transform="translate(143.094 3837.23)" fill="#f7a67b"/>
    <path id="Path_1448" data-name="Path 1448" d="M387.143,231.63a87.151,87.151,0,0,0-3.354-9H359.261c-.014,1.64-.028,4.759-.012,9Z" transform="translate(142.861 3837.23)" fill="#f7a67b"/>
    <path id="Path_1453" data-name="Path 1453" d="M345.545,100.4c-1.467,2.86-2.4,6.981-1.211,10.016,2.627,6.722,15.506,8.964,19.326,2.509,2.849-4.813,1.521-11.954-2.039-16.054C356.672,91.173,348.688,94.265,345.545,100.4Z" transform="translate(143.051 3838.816)" fill="#1d2b4a"/>
    <path id="Path_1454" data-name="Path 1454" d="M368.753,160.133s-.467,25.006,16.947,19.473c0,0,11.378-13.214-2.139-22.539Z" transform="translate(142.744 3838.039)" fill="#f7a67b"/>
    <rect id="Rectangle_110" data-name="Rectangle 110" width="13.461" height="15.353" transform="translate(499.746 3978.816)" fill="#e8a185"/>
    <path id="Path_1455" data-name="Path 1455" d="M356.857,147.619v-7.045h13.46v8.419C365.56,149.035,360.985,149,356.857,147.619Z" transform="translate(142.889 3838.242)" fill="#e8a185"/>
    <path id="Path_1456" data-name="Path 1456" d="M337.974,162.706a15.55,15.55,0,0,1,8.2-6.276l12.016-4.449h11.471l12.008,4.449a15.55,15.55,0,0,1,8.2,6.276Z" transform="translate(143.123 3838.102)" fill="#e8a185"/>
    <path id="Path_1457" data-name="Path 1457" d="M388.471,236.864c-1.737-15.089-10.66-30.3-10.66-30.3L384,179.631l1.3-12.176c2.221-9.348-.848-10.436-.848-10.436l-11.677-3.868s-2.031,7.2-13.254,5.846c0,0-8.464-.891-5.088-5.613l-7.118,2.7s-2.094,6.763-7.912,23.382c0,0-1.439,7.265,6.566,14.233l-8.885,46.087S387.92,245.864,388.471,236.864Z" transform="translate(143.133 3838.086)" fill="#808cbc"/>
    <path id="Path_1458" data-name="Path 1458" d="M374.533,135.758a9.429,9.429,0,0,1-2.229,3c-4.363,3.885-10.094,6.5-15.993,6.272-15.14-7.321-9-36.776-9-36.776,2.861-14.1,15-13.6,15-13.6,9.182-.043,17.383,4.611,18.418,14.325.4,3.721-.468,7.666-.8,11.358a29.768,29.768,0,0,1-1.649,7.972C377.292,130.919,375.735,133.25,374.533,135.758Z" transform="translate(143.021 3838.809)" fill="#e8a185"/>
    <path id="Path_1461" data-name="Path 1461" d="M407.589,207.838,382.8,244.53l-3.354-3.173,14.72-34.416-12.537-28.513s-7.541-15.831-.443-22.309c0,0,11.092-1.328,14.994,20.184Z" transform="translate(142.629 3838.051)" fill="#e8a185"/>
    <path id="Path_1462" data-name="Path 1462" d="M349.339,95.978s.3,20.037,18.181,21.5c0,0,9.644.948,8,10.188,0,0,.555-7.156,6.289-5.479,0,0,4.146-4.707,3.586-14.223,0,0,.941-10.685-14.087-15.335C371.312,92.633,357.463,86.775,349.339,95.978Z" transform="translate(142.982 3838.855)" fill="#353f49"/>
    <path id="Path_1463" data-name="Path 1463" d="M376.759,124.88s1.921-4.549,5.58-2.544c0,0,2.18,1.287.438,4.834,0,0-2.344,4.7-6.019,2.726Z" transform="translate(142.645 3838.473)" fill="#f7a67b"/>
    <path id="Path_1468" data-name="Path 1468" d="M364.9,115.91c3.627-.347,5.511,1.933,5.679,5.165.213,4.126-3.769,5.425-4.026,9.3-.144,2.179,2.338,4.426,1.972,7.731-.414,3.728-1.552,5.279-.657,8.9.8,3.252,1.822,4.167,1.032,8.134-.556,2.8-2.988,7.023-.8,9.821,2.555,3.264,5.754.577,8.661.48,3.5-.12,5.772,2.356,7.329-2.984,4.882-.3,8.148.771,8.171-5.252.007-2.143-1.323-3.268-1.534-5.176-.266-2.384.821-3.821.914-5.779.2-4.246-2.975-7.956-3.006-12.277-.017-2.158,1.274-4.153,1.055-6.206-.186-1.753-1.635-3.768-2.075-5.667-1.405-6.073.137-18.234-6.157-22.208-3.879-2.451-8.952,2-11.382,4.758-2.527,2.866-1.407,10.037-4.143,10.223Z" transform="translate(142.791 3838.75)" fill="#353f49"/>
  </g>
</svg>
